<svg width="26" height="26" viewBox="0 0 26 26" fill="none" xmlns="http://www.w3.org/2000/svg">
<path fill-rule="evenodd" clip-rule="evenodd" d="M0.328056 0.328056C0.765463 -0.109352 1.47464 -0.109352 1.91205 0.328056L13 11.416L24.088 0.328056C24.5254 -0.109352 25.2345 -0.109352 25.6719 0.328056C26.1094 0.765463 26.1094 1.47464 25.6719 1.91205L14.584 13L25.6719 24.088C26.1094 24.5254 26.1094 25.2345 25.6719 25.6719C25.2345 26.1094 24.5254 26.1094 24.088 25.6719L13 14.584L1.91205 25.6719C1.47464 26.1094 0.765463 26.1094 0.328056 25.6719C-0.109352 25.2345 -0.109352 24.5254 0.328056 24.088L11.416 13L0.328056 1.91205C-0.109352 1.47464 -0.109352 0.765463 0.328056 0.328056Z" fill="#222222"/>
</svg>
