<svg width="199" height="46" viewBox="0 0 199 46" fill="none" xmlns="http://www.w3.org/2000/svg">
<path fill-rule="evenodd" clip-rule="evenodd" d="M42.4342 17.8712L0.0229503 18.2064L0 45.8324C15.5255 45.6892 33.0535 46.4628 48.2204 45.5373C57.0217 45.4542 63.2267 29.6585 51.0289 22.6102C55.0652 20.0115 58.4216 17.9715 57.7044 10.4819C56.4508 -2.59471 40.2798 0.264723 28.4922 0.264723C21.9228 0.264723 15.3563 0.273327 8.78691 0.273327L0.11188 11.6509L22.6256 11.6366L42.0555 11.7598C45.5324 13.1609 45.0792 16.9343 42.4342 17.8712ZM14.2174 33.2916L14.16 27.0369L30.5978 27.3234C33.217 27.3034 40.5982 27.2862 42.1559 27.5068C44.4767 27.8306 44.7091 33.4606 41.6883 33.4463L14.2174 33.2916Z" fill="#222222"/>
<path fill-rule="evenodd" clip-rule="evenodd" d="M150.508 34.4922L156.79 34.4721L156.827 22.6418C157.783 23.1862 158.348 24.2463 159.584 25.5643L166.833 34.4922L172.129 34.4893L172.215 11.6051L165.864 11.5937L165.867 23.5988C163.79 21.6075 156.509 11.926 155.677 11.6166L150.528 11.5908L150.508 34.4922Z" fill="#222222"/>
<path fill-rule="evenodd" clip-rule="evenodd" d="M111.413 20.6046L101.174 20.5244L101.364 16.4845L112.686 16.4644L112.646 11.6223L94.9175 11.5879L94.9204 34.4405L113.231 34.4921L113.249 29.5439L101.306 29.4694L101.318 25.3837L111.398 25.2863L111.413 20.6046Z" fill="#222222"/>
<path fill-rule="evenodd" clip-rule="evenodd" d="M118.14 34.4348L124.732 34.495L126.451 30.1228L135.929 30.0397C136.821 31.1084 137.438 33.0538 137.903 34.4835L144.535 34.4921L134.586 11.6481L128.287 11.5908L118.14 34.4348ZM131.282 18.0776L134.219 25.2319L128.507 25.2692L131.282 18.0776Z" fill="#222222"/>
<path fill-rule="evenodd" clip-rule="evenodd" d="M181.169 27.7645L179.278 32.303C181.53 34.9447 194.672 37.2769 198.192 30.5695C200.2 26.7388 198.149 23.4467 195.512 22.1087C192.755 20.7076 188.128 20.9225 185.977 18.7134C186.424 13.8283 193.567 17.1433 196.149 17.8367C196.559 16.1491 197.638 14.7022 197.853 12.8714C193.673 11.7568 189.155 9.79129 184.178 12.1149C182.061 13.1063 180.942 13.7739 180.073 15.9887C179.181 18.2665 179.674 20.9483 180.87 22.4181C183.441 25.5813 191.292 25.5125 192.319 27.2431C193.702 29.5696 189.875 30.0681 187.511 29.8361C184.459 29.5381 183.343 28.3462 181.169 27.7645Z" fill="#222222"/>
<path fill-rule="evenodd" clip-rule="evenodd" d="M72.2804 16.5846L80.1464 16.6132C80.1034 19.1346 80.4419 25.7846 79.9973 27.647C79.6358 29.1541 78.6518 29.9592 76.7786 29.7271C75.4331 29.5581 74.8881 28.9191 74.1049 28.2372C74.0361 28.1771 73.8324 27.9965 73.7664 27.945C73.2845 27.5696 73.7521 27.8304 73.2099 27.584C71.9362 28.879 70.803 30.6526 69.8391 31.5522C72.9373 35.7096 82.2062 36.403 85.1122 31.813C87.4789 28.0768 86.449 17.0115 86.5351 11.6164L72.2316 11.5791L72.2804 16.5846Z" fill="#222222"/>
<path d="M123.068 43.4661H121.043V45.3428H123.301V45.9072H120.372V40.7012H123.186V41.2656H121.046V42.9102H123.071V43.4661H123.068Z" fill="#222222"/>
<path d="M124.081 45.085C124.382 45.2712 124.824 45.4259 125.286 45.4259C125.975 45.4259 126.376 45.062 126.376 44.5377C126.376 44.0506 126.098 43.7727 125.395 43.5034C124.546 43.2026 124.018 42.7613 124.018 42.0307C124.018 41.2198 124.689 40.6182 125.702 40.6182C126.236 40.6182 126.623 40.7414 126.852 40.8732L126.666 41.4204C126.497 41.3287 126.15 41.174 125.676 41.174C124.965 41.174 124.695 41.598 124.695 41.9533C124.695 42.4404 125.011 42.6782 125.731 42.9561C126.611 43.2942 127.059 43.7211 127.059 44.4833C127.059 45.2855 126.465 45.9818 125.234 45.9818C124.732 45.9818 124.185 45.8356 123.906 45.6494L124.081 45.085Z" fill="#222222"/>
<path d="M128.975 41.2713H127.392V40.7012H131.247V41.2713H129.655V45.9015H128.975V41.2713Z" fill="#222222"/>
<path d="M133.227 45.9047V45.4893L133.76 44.9735C135.042 43.7529 135.622 43.1054 135.631 42.349C135.631 41.839 135.384 41.3691 134.632 41.3691C134.176 41.3691 133.797 41.6012 133.565 41.7932L133.35 41.3147C133.697 41.0224 134.193 40.8047 134.773 40.8047C135.854 40.8047 136.31 41.5468 136.31 42.2631C136.31 43.1885 135.639 43.9392 134.581 44.9563L134.179 45.3259V45.3403H136.437V45.9047H133.227Z" fill="#222222"/>
<path d="M140.533 43.3402C140.533 45.045 139.899 45.9877 138.786 45.9877C137.805 45.9877 137.14 45.0679 137.125 43.409C137.125 41.7271 137.851 40.7988 138.872 40.7988C139.931 40.8017 140.533 41.7443 140.533 43.3402ZM137.805 43.4176C137.805 44.7212 138.207 45.4633 138.826 45.4633C139.521 45.4633 139.853 44.6525 139.853 43.3717C139.853 42.1369 139.538 41.326 138.832 41.326C138.238 41.326 137.805 42.0538 137.805 43.4176Z" fill="#222222"/>
<path d="M141.162 45.9047V45.4893L141.695 44.9735C142.978 43.7529 143.557 43.1054 143.566 42.349C143.566 41.839 143.319 41.3691 142.567 41.3691C142.111 41.3691 141.732 41.6012 141.5 41.7932L141.285 41.3147C141.632 41.0224 142.128 40.8047 142.708 40.8047C143.789 40.8047 144.246 41.5468 144.246 42.2631C144.246 43.1885 143.574 43.9392 142.516 44.9563L142.114 45.3259V45.3403H144.372V45.9047H141.162Z" fill="#222222"/>
<path d="M148.465 43.3402C148.465 45.045 147.831 45.9877 146.718 45.9877C145.737 45.9877 145.071 45.0679 145.057 43.409C145.057 41.7271 145.783 40.7988 146.804 40.7988C147.863 40.8017 148.465 41.7443 148.465 43.3402ZM145.737 43.4176C145.737 44.7212 146.139 45.4633 146.758 45.4633C147.453 45.4633 147.785 44.6525 147.785 43.3717C147.785 42.1369 147.47 41.326 146.764 41.326C146.17 41.326 145.737 42.0538 145.737 43.4176Z" fill="#222222"/>
</svg>
