<svg width="104" height="24" viewBox="0 0 104 24" fill="none" xmlns="http://www.w3.org/2000/svg">
<path fill-rule="evenodd" clip-rule="evenodd" d="M22.1396 9.32411L0.0119741 9.49901L0 23.9126C8.10028 23.8378 17.2453 24.2414 25.1585 23.7586C29.7504 23.7153 32.9878 15.474 26.6238 11.7966C28.7297 10.4408 30.4808 9.37644 30.1066 5.46884C29.4526 -1.35376 21.0155 0.138116 14.8655 0.138116C11.438 0.138116 8.01198 0.142605 4.58447 0.142605L0.0583722 6.07874L11.8047 6.07127L21.942 6.13555C23.756 6.86654 23.5196 8.83529 22.1396 9.32411ZM7.41778 17.3695L7.38784 14.1062L15.9641 14.2557C17.3306 14.2452 21.1817 14.2363 21.9944 14.3514C23.2052 14.5203 23.3265 17.4577 21.7504 17.4502L7.41778 17.3695Z" fill="#FAF9F8"/>
<path fill-rule="evenodd" clip-rule="evenodd" d="M78.5254 17.9954L81.8032 17.9849L81.8227 11.8126C82.3211 12.0966 82.6159 12.6497 83.261 13.3374L87.0433 17.9954L89.8062 17.9939L89.8511 6.05435L86.5374 6.04836L86.5389 12.3119C85.4552 11.2729 81.6565 6.22177 81.2225 6.06032L78.5359 6.04688L78.5254 17.9954Z" fill="#FAF9F8"/>
<path fill-rule="evenodd" clip-rule="evenodd" d="M58.1277 10.7503L52.7858 10.7084L52.8846 8.60063L58.7922 8.59017L58.7713 6.06384L49.5215 6.0459L49.523 17.969L59.0766 17.9959L59.0856 15.4143L52.8547 15.3754L52.8607 13.2437L58.1202 13.1929L58.1277 10.7503Z" fill="#FAF9F8"/>
<path fill-rule="evenodd" clip-rule="evenodd" d="M61.6377 17.9655L65.0772 17.9969L65.9737 15.7157L70.9189 15.6724C71.3844 16.2299 71.7062 17.245 71.9486 17.9909L75.4091 17.9954L70.2184 6.07677L66.9316 6.04688L61.6377 17.9655ZM68.4942 9.43126L70.0268 13.164L67.0469 13.1834L68.4942 9.43126Z" fill="#FAF9F8"/>
<path fill-rule="evenodd" clip-rule="evenodd" d="M94.5225 14.4858L93.5361 16.8537C94.7111 18.232 101.568 19.4488 103.404 15.9493C104.452 13.9506 103.382 12.233 102.006 11.5349C100.568 10.8039 98.1535 10.916 97.031 9.7635C97.2645 7.21474 100.991 8.94431 102.338 9.30607C102.552 8.42559 103.115 7.67067 103.227 6.71545C101.047 6.13394 98.6894 5.10846 96.0925 6.3208C94.988 6.83803 94.4042 7.18633 93.9507 8.34187C93.4852 9.53029 93.7427 10.9295 94.3668 11.6964C95.7079 13.3467 99.8044 13.3108 100.34 14.2137C101.062 15.4276 99.065 15.6877 97.8317 15.5666C96.2392 15.4111 95.657 14.7893 94.5225 14.4858Z" fill="#FAF9F8"/>
<path fill-rule="evenodd" clip-rule="evenodd" d="M37.7112 8.65256L41.8152 8.66751C41.7928 9.983 41.9694 13.4526 41.7374 14.4243C41.5488 15.2106 41.0354 15.6306 40.0581 15.5095C39.3561 15.4213 39.0717 15.088 38.6631 14.7322C38.6272 14.7008 38.5209 14.6066 38.4865 14.5797C38.2351 14.3839 38.479 14.5199 38.1962 14.3914C37.5316 15.0671 36.9404 15.9924 36.4375 16.4618C38.054 18.6308 42.8899 18.9926 44.4061 16.5978C45.6409 14.6485 45.1035 8.87529 45.1484 6.06045L37.6858 6.04102L37.7112 8.65256Z" fill="#FAF9F8"/>
<path d="M64.2097 22.6779H63.153V23.657H64.3309V23.9515H62.8027V21.2354H64.271V21.5298H63.1545V22.3879H64.2112V22.6779H64.2097Z" fill="#FAF9F8"/>
<path d="M64.7378 23.5229C64.8949 23.6201 65.1254 23.7008 65.3664 23.7008C65.7256 23.7008 65.9351 23.5109 65.9351 23.2374C65.9351 22.9832 65.7899 22.8382 65.4233 22.6977C64.9802 22.5408 64.7049 22.3105 64.7049 21.9294C64.7049 21.5063 65.0551 21.1924 65.5834 21.1924C65.8618 21.1924 66.0638 21.2567 66.1836 21.3254L66.0863 21.6109C65.998 21.5631 65.8169 21.4824 65.5699 21.4824C65.1988 21.4824 65.0581 21.7036 65.0581 21.889C65.0581 22.1431 65.2227 22.2672 65.5984 22.4122C66.0578 22.5886 66.2913 22.8113 66.2913 23.209C66.2913 23.6275 65.9815 23.9908 65.3394 23.9908C65.0775 23.9908 64.7917 23.9145 64.6465 23.8174L64.7378 23.5229Z" fill="#FAF9F8"/>
<path d="M67.291 21.5328H66.4648V21.2354H68.4764V21.5328H67.6457V23.9485H67.291V21.5328Z" fill="#FAF9F8"/>
<path d="M69.5098 23.9499V23.7332L69.7882 23.4641C70.4572 22.8273 70.7595 22.4894 70.764 22.0948C70.764 21.8287 70.6353 21.5836 70.2432 21.5836C70.0052 21.5836 69.8076 21.7046 69.6864 21.8048L69.5741 21.5552C69.7552 21.4027 70.0142 21.2891 70.3165 21.2891C70.8808 21.2891 71.1187 21.6762 71.1187 22.05C71.1187 22.5328 70.7685 22.9245 70.2162 23.4551L70.0067 23.648V23.6554H71.1846V23.9499H69.5098Z" fill="#FAF9F8"/>
<path d="M73.3221 22.6121C73.3221 23.5015 72.9913 23.9933 72.4106 23.9933C71.8987 23.9933 71.5514 23.5135 71.5439 22.648C71.5439 21.7705 71.9226 21.2861 72.4555 21.2861C73.0078 21.2876 73.3221 21.7794 73.3221 22.6121ZM71.8987 22.6524C71.8987 23.3326 72.1082 23.7198 72.4315 23.7198C72.7937 23.7198 72.9674 23.2967 72.9674 22.6285C72.9674 21.9842 72.8027 21.5612 72.4345 21.5612C72.1247 21.5612 71.8987 21.9409 71.8987 22.6524Z" fill="#FAF9F8"/>
<path d="M73.6494 23.9499V23.7332L73.9278 23.4641C74.5968 22.8273 74.8992 22.4894 74.9037 22.0948C74.9037 21.8287 74.775 21.5836 74.3828 21.5836C74.1448 21.5836 73.9473 21.7046 73.826 21.8048L73.7138 21.5552C73.8949 21.4027 74.1538 21.2891 74.4562 21.2891C75.0204 21.2891 75.2584 21.6762 75.2584 22.05C75.2584 22.5328 74.9082 22.9245 74.3559 23.4551L74.1463 23.648V23.6554H75.3243V23.9499H73.6494Z" fill="#FAF9F8"/>
<path d="M77.4597 22.6121C77.4597 23.5015 77.129 23.9933 76.5482 23.9933C76.0364 23.9933 75.6891 23.5135 75.6816 22.648C75.6816 21.7705 76.0603 21.2861 76.5931 21.2861C77.1454 21.2876 77.4597 21.7794 77.4597 22.6121ZM76.0364 22.6524C76.0364 23.3326 76.2459 23.7198 76.5692 23.7198C76.9314 23.7198 77.105 23.2967 77.105 22.6285C77.105 21.9842 76.9404 21.5612 76.5722 21.5612C76.2624 21.5612 76.0364 21.9409 76.0364 22.6524Z" fill="#FAF9F8"/>
</svg>
