<svg width="51" height="14" viewBox="0 0 51 14" fill="none" xmlns="http://www.w3.org/2000/svg">
<path d="M47.0003 10H50V9H47C47.1132 9.32322 47.1132 9.67678 47 10" fill="#222222"/>
<path d="M20.7763 3.93547H18.3153V10.0633H20.6028C22.0779 10.0633 22.6593 9.38924 22.6593 8.23367C22.6593 7.20906 21.9129 6.85881 21.9129 6.85881C22.1126 6.72253 22.2757 6.53849 22.3878 6.32313C22.4998 6.10776 22.5573 5.86776 22.5551 5.62453C22.5551 4.59121 21.9823 3.93457 20.7763 3.93457V3.93547ZM20.8716 4.90631C21.3315 4.90631 21.5563 5.20399 21.5563 5.64195C21.5563 6.14089 21.2351 6.40373 20.7665 6.40373H19.3218V4.90781L20.8716 4.90631ZM19.3218 7.36676H20.7674C21.4444 7.36676 21.6355 7.76927 21.6355 8.23367C21.6355 8.81131 21.4271 9.09156 20.6376 9.09156H19.3218V7.36676ZM27.0571 3.93547H26.0416V10.0633H27.0571V3.93547ZM31.1099 3.93547V10.0633H35.0371V9.09307H32.125V3.93547H31.1099ZM38.3647 3.93547V10.0633H42.2919V9.09307H39.3783V3.93547H38.3647Z" fill="#222222"/>
<path d="M48.6068 4.80098L48.5264 4.90701L45.6686 8.65851C45.4923 8.66824 45.3225 8.72935 45.18 8.83445C45.0374 8.93955 44.9281 9.08412 44.8653 9.25064C44.8025 9.41716 44.789 9.59848 44.8263 9.77262C44.8635 9.94677 44.9501 10.1063 45.0754 10.2318C45.2007 10.3573 45.3594 10.4434 45.5323 10.4797C45.7051 10.5161 45.8847 10.501 46.0493 10.4364C46.2138 10.3718 46.3563 10.2605 46.4594 10.1158C46.5625 9.97121 46.6218 9.7995 46.6301 9.62154C46.6381 9.46585 46.6063 9.31071 46.5378 9.17096L46.8721 8.73421L49.471 5.33987C49.6662 5.33239 49.8538 5.26187 50.0062 5.13868C50.1587 5.0155 50.2679 4.84617 50.3177 4.65564C50.3676 4.46511 50.3555 4.26345 50.2832 4.08038C50.211 3.89731 50.0823 3.74249 49.9163 3.63875C49.7502 3.53501 49.5556 3.48782 49.3609 3.50414C49.1663 3.52045 48.982 3.59941 48.8352 3.72938C48.6884 3.85935 48.5869 4.03346 48.5455 4.22606C48.5042 4.41866 48.5252 4.61956 48.6056 4.79918" fill="#222222"/>
<path d="M48.0967 3.93457H45.223V4.90631H48.0967C47.985 4.5922 47.985 4.24869 48.0967 3.93457Z" fill="#222222"/>
<path d="M9.74222 0H4.83355C2.35768 0 0.350586 2.02523 0.350586 4.52348V9.47652C0.350586 11.9748 2.35768 14 4.83355 14H9.74222C12.2181 14 14.2252 11.9748 14.2252 9.47652V4.52348C14.2252 2.02523 12.2181 0 9.74222 0Z" fill="#222222"/>
<path d="M8.32885 4.77594L8.24728 4.88317L5.35608 8.68003C5.15809 8.69112 4.9689 8.76626 4.81655 8.89433C4.66419 9.0224 4.55677 9.19658 4.51019 9.39107C4.46362 9.58556 4.48036 9.79001 4.55795 9.97415C4.63554 10.1583 4.76985 10.3123 4.94097 10.4134C5.1121 10.5145 5.31094 10.5573 5.50805 10.5354C5.70516 10.5135 5.89005 10.4282 6.03533 10.292C6.18061 10.1558 6.27855 9.97607 6.31465 9.77932C6.35075 9.58258 6.32309 9.37933 6.23576 9.19969L6.57245 8.75633L9.20258 5.32174C9.40032 5.31452 9.59053 5.24336 9.74514 5.11876C9.89975 4.99416 10.0106 4.82272 10.0613 4.62973C10.112 4.43673 10.0998 4.2324 10.0267 4.04689C9.95354 3.86138 9.82323 3.7045 9.65499 3.5994C9.48675 3.49431 9.28949 3.44656 9.0923 3.4632C8.89512 3.47984 8.70846 3.55999 8.55986 3.69183C8.41126 3.82367 8.30859 4.00021 8.26699 4.1954C8.2254 4.3906 8.24708 4.59412 8.32885 4.77594ZM7.81294 3.89972H4.90537V4.88317H7.81354C7.70067 4.56525 7.70067 4.21764 7.81354 3.89972H7.81294ZM6.76357 10.1011H9.76254V9.11769H6.76328C6.87632 9.43559 6.87632 9.78325 6.76328 10.1011H6.76357Z" fill="#F0F0F0"/>
</svg>
