<svg width="46" height="13" viewBox="0 0 46 13" fill="none" xmlns="http://www.w3.org/2000/svg">
<path d="M6.43127 13C6.1185 12.9983 5.80765 12.9503 5.50859 12.8577C5.18063 12.7561 4.86364 12.6213 4.5624 12.4554C4.15047 12.2413 3.75695 11.9929 3.38594 11.7126C3.05201 11.4483 2.7364 11.1611 2.44132 10.8532C2.04164 10.4492 1.6688 10.036 1.36221 9.65648C1.02312 9.25252 0.730328 8.81108 0.489429 8.3406L0.469064 8.29763V8.29627L0.464364 8.28632V8.28406V8.28179L0.440642 8.23045L0.439076 8.22706L0.437509 8.22367L0.41513 8.17414L0.412221 8.1678V8.16599L0.395661 8.1289L0.390513 8.11737L0.386709 8.10855L0.383576 8.10153V8.10018L0.366344 8.0606L0.364554 8.05607L0.359854 8.05178L0.339489 8.00383L0.336132 7.99591L0.316215 7.94728L0.314872 7.94412L0.31353 7.94095L0.294731 7.89346L0.292493 7.8878L0.274366 7.84098V7.8394L0.271905 7.83307L0.254673 7.78783L0.253106 7.78331L0.251092 7.77811C0.245721 7.76363 0.240574 7.74916 0.235203 7.73423V7.73129L0.23207 7.72247C0.226028 7.70573 0.221328 7.69193 0.217076 7.67972V7.67701L0.213719 7.66683L0.196264 7.62205L0.192012 7.60893L0.178361 7.56731L0.176123 7.56075L0.174332 7.55419C0.169409 7.53882 0.165381 7.52547 0.161576 7.51326L0.157772 7.50036L0.146806 7.46373L0.144792 7.45671V7.45536L0.142554 7.44744L0.131365 7.41125L0.129574 7.40515L0.127784 7.39587C0.12398 7.38162 0.120623 7.36918 0.11749 7.35742L0.115252 7.35064L0.113238 7.34317C0.110328 7.33164 0.106972 7.3192 0.103615 7.30518L0.100258 7.29161V7.28844C0.0977962 7.27826 0.0944393 7.26582 0.0913063 7.25135L0.0866067 7.23348C0.0839212 7.2224 0.0812357 7.21086 0.0783265 7.19684L0.0765361 7.18825L0.074522 7.1792C0.0718366 7.16699 0.0693749 7.15477 0.0669132 7.14279L0.0642277 7.12605C0.0624374 7.11745 0.0608709 7.10886 0.0590805 7.10026V7.09574V7.0919V7.09054L0.0557237 7.07244V7.07018L0.0510241 7.04372C0.0494576 7.03535 0.0481148 7.02698 0.0467721 7.01862L0.0422963 6.99102C0.0409536 6.98311 0.0398346 6.97519 0.0384919 6.96841C0.0371491 6.96162 0.0355826 6.94873 0.0340161 6.93878L0.0326733 6.92905L0.0313306 6.91933C0.0297641 6.90779 0.0281975 6.89671 0.0268548 6.88517L0.0217076 6.86753V6.86437C0.0194697 6.85125 0.0194697 6.84039 0.0172318 6.83044C0.0172318 6.82433 0.0158891 6.81823 0.0152177 6.81212V6.80986C0.0140988 6.799 0.0129798 6.78724 0.0118609 6.77638C0.0118609 6.77005 0.0107419 6.76349 0.0100705 6.75716V6.7558C0.00917539 6.74645 0.00835482 6.73711 0.00760886 6.72776C0.00760886 6.71939 0.00626612 6.71125 0.00581854 6.70288C0.00537096 6.69451 0.00469959 6.68637 0.00402822 6.67822C0.00402822 6.66895 0.00290927 6.65968 0.00246169 6.65018C0.00201411 6.64068 0.00246169 6.63457 0.00111895 6.62756C-0.00022379 6.62055 0.00111895 6.60879 0 6.59952V6.59816C0 6.59024 0 6.58233 0 6.57441C0 6.56649 0 6.56197 0 6.55586V6.54682C0 6.53822 0 6.5294 0 6.52081C0 6.51221 0 6.50679 0 6.49977V6.44708C0 6.43622 0 6.42536 0 6.41451C0 6.40682 0 6.39913 0 6.39189C0 6.38465 0 6.37266 0 6.36294C0 6.35751 0 6.35231 0 6.34688V6.33896C0 6.32675 -2.08421e-10 6.31635 0.00156653 6.30594C0.00156653 6.29984 0.00156653 6.2935 0.00156653 6.2874C0.00156653 6.27745 0.00268548 6.26682 0.00358064 6.25415C0.00358064 6.24827 0.00358064 6.24216 0.00492338 6.23628C0.00492338 6.22497 0.0067137 6.21366 0.00760886 6.20236V6.19127V6.18336C0.00865321 6.17205 0.00977216 6.16074 0.0109657 6.14943L0.012756 6.13156V6.12794C0.012756 6.11777 0.0149939 6.10668 0.0167842 6.09357C0.0167842 6.08949 0.0167842 6.08542 0.0183508 6.08135V6.07547V6.07321C0.0196935 6.0619 0.02126 6.05059 0.0228266 6.03928L0.0250645 6.02323C0.0268548 6.01101 0.0286451 5.9988 0.0304354 5.98681L0.0326733 5.97324V5.97121C0.0344636 5.9599 0.0364778 5.94746 0.0389394 5.93321L0.0416249 5.91738C0.0438628 5.90426 0.0463245 5.89091 0.0487862 5.87757L0.0508003 5.86717V5.86151C0.053262 5.84839 0.0559475 5.83482 0.058633 5.82171L0.0608709 5.8104V5.80836C0.0635563 5.79524 0.0664656 5.78167 0.0693749 5.76833V5.76403L0.0711652 5.75566C0.0738507 5.74322 0.0769837 5.73011 0.0805644 5.71473L0.0834736 5.70274C0.0866067 5.68985 0.0899635 5.67582 0.0942155 5.65863L0.0957821 5.65253L0.0971248 5.64755C0.100929 5.6324 0.104957 5.61702 0.109433 5.60028L0.110552 5.59598L0.111895 5.59124C0.116371 5.57472 0.120399 5.56002 0.124203 5.546L0.127113 5.5356C0.130917 5.52225 0.135617 5.50642 0.140316 5.49036V5.48855L0.142778 5.48041C0.147701 5.46413 0.152625 5.44829 0.157101 5.43382L0.159562 5.4259C0.164486 5.4103 0.169857 5.39356 0.176123 5.37456L0.177465 5.37026V5.36868C0.18306 5.35149 0.189102 5.33408 0.194473 5.31802L0.197159 5.31055C0.202754 5.29404 0.208796 5.27731 0.214391 5.2617L0.215733 5.25808L0.217076 5.25446C0.224014 5.23546 0.229832 5.21986 0.235203 5.20493L0.237441 5.19882C0.243931 5.18186 0.250645 5.16422 0.257582 5.14635L0.258925 5.14296C0.265639 5.12554 0.273024 5.10722 0.281304 5.08687L0.28287 5.08302C0.290479 5.06425 0.297641 5.04661 0.305249 5.02942L0.307711 5.02354C0.314201 5.00793 0.321362 4.9912 0.33009 4.97107L0.332776 4.96496C0.339489 4.94958 0.346874 4.93239 0.356497 4.91113L0.358511 4.90661C0.368582 4.88399 0.377086 4.86544 0.384919 4.84848C0.851297 3.83522 1.54863 3.12956 2.22425 2.44742L2.23768 2.43385C2.63065 2.03669 2.99744 1.69766 3.35886 1.39753C3.77222 1.05057 4.21266 0.737964 4.67587 0.462751C4.93337 0.307891 5.20967 0.187465 5.49785 0.104492C5.74481 0.0354996 5.99982 0.000354502 6.25605 0C6.60061 0.00251363 6.94249 0.0613239 7.26847 0.174154C7.5804 0.281865 7.88227 0.417268 8.17057 0.578778C8.63103 0.82869 9.07277 1.11232 9.49227 1.42738C9.88713 1.72462 10.2602 2.05033 10.6085 2.40196C10.9722 2.77374 11.305 3.17503 11.6037 3.60181C11.8829 3.98284 12.1133 4.39799 12.2894 4.8374C12.4043 5.14469 12.5018 5.45829 12.5817 5.7767C12.6513 6.05345 12.6905 6.33714 12.6985 6.62259C12.704 6.90233 12.6705 7.18145 12.5989 7.45174C12.5146 7.76099 12.3948 8.05923 12.242 8.34037C12.0243 8.75293 11.7696 9.14442 11.4811 9.50992C11.1938 9.86867 10.8862 10.2104 10.56 10.5334C10.2075 10.8895 9.83623 11.2261 9.44774 11.5416C9.04113 11.8725 8.61467 12.1777 8.17079 12.4554C7.65378 12.7999 7.05048 12.9888 6.43127 13ZM7.3835 11.5593C7.12529 11.7129 6.84637 11.8278 6.55548 11.9003C6.84637 11.8278 7.12529 11.7129 7.3835 11.5593ZM3.58444 11.0404C3.61152 11.059 3.6395 11.0778 3.66747 11.0961C3.63659 11.0757 3.60951 11.0574 3.58444 11.0404ZM2.6396 10.2436L2.68727 10.2904L2.6396 10.2436ZM3.09546 5.68962L3.08069 5.72196V5.72445L3.06749 5.75431L3.06615 5.7577L3.05361 5.78688V5.78846V5.79004L3.04131 5.8199V5.82193L3.029 5.85292V5.85427L3.01781 5.88345V5.88549V5.8873L3.00774 5.91466L3.00639 5.91806L2.99677 5.9452V5.94746V5.94927C2.99364 5.95786 2.99073 5.96713 2.98737 5.97731V5.97957C2.98357 5.99111 2.98066 5.9997 2.9782 6.00807L2.97685 6.01237L2.96902 6.03838L2.96745 6.04381C2.96492 6.0521 2.96246 6.06039 2.96007 6.06869V6.07163V6.07457L2.95313 6.09945L2.94172 6.10668L2.94038 6.11211L2.935 6.13247L2.93344 6.13858C2.93142 6.14672 2.92941 6.15486 2.9274 6.163L2.92583 6.16956L2.92068 6.19218L2.91934 6.19851L2.91755 6.20711L2.91464 6.2209V6.22452V6.22837L2.91084 6.24714V6.25076L2.90636 6.26252L2.90367 6.27699L2.90233 6.28468V6.28808V6.29283C2.90121 6.29984 2.90009 6.30662 2.89897 6.31363L2.89763 6.32223L2.89472 6.34258L2.89338 6.35118C2.89338 6.35796 2.89159 6.36452 2.89069 6.37131V6.37651V6.38171C2.89069 6.38804 2.88913 6.39438 2.88846 6.40071V6.40704V6.4127V6.4188C2.88846 6.4231 2.88846 6.4274 2.88734 6.43147V6.4421V6.44775C2.88734 6.45205 2.88734 6.45657 2.88734 6.46087C2.88734 6.46517 2.88734 6.46743 2.88734 6.47082C2.88734 6.47422 2.88734 6.48258 2.88622 6.48846C2.88622 6.49073 2.88622 6.49299 2.88622 6.49548V6.49955C2.88622 6.50543 2.88622 6.51131 2.88622 6.51742C2.88622 6.52352 2.88622 6.52601 2.88622 6.53031C2.88622 6.53528 2.88622 6.54048 2.88622 6.54546V6.55971C2.88622 6.56536 2.88622 6.57102 2.88622 6.57667V6.61761C2.88622 6.62236 2.88622 6.62734 2.88622 6.63209C2.88622 6.63684 2.88622 6.64226 2.88622 6.64747V6.66058C2.88622 6.66601 2.88622 6.67144 2.88622 6.67687V6.68343V6.68999C2.88622 6.6936 2.88622 6.697 2.88622 6.70062V6.70604V6.71306V6.71984C2.88622 6.72436 2.88622 6.72911 2.88622 6.73364V6.74133V6.7497V6.7601C2.88622 6.76621 2.88734 6.77231 2.88801 6.77842C2.88801 6.78091 2.88801 6.78317 2.88801 6.78566V6.78973C2.88801 6.79606 2.88935 6.80217 2.89025 6.80827V6.81302V6.81936L2.89159 6.82886L2.89271 6.83745L2.89428 6.84831V6.85373L2.89584 6.86414V6.86957V6.87613L2.89718 6.88382V6.89038V6.89693L2.89853 6.9044L2.90144 6.91978V6.92408L2.903 6.93267V6.93697L2.90524 6.94873L2.90703 6.95732C2.90837 6.96411 2.90979 6.97082 2.91128 6.97745L2.9133 6.98718L2.91643 7.00097L2.91777 7.00731V7.01206V7.01635L2.92247 7.03626L2.92471 7.04553C2.92672 7.05367 2.92851 7.06046 2.93008 7.06656L2.93232 7.07516L2.93791 7.09574L2.93903 7.09981L2.94015 7.10388C2.94194 7.11067 2.94396 7.11723 2.94575 7.12401L2.94821 7.13283L2.95425 7.15342L2.95537 7.15726V7.16065L2.96231 7.18327V7.18666V7.19028L2.96589 7.20114L2.96969 7.21267L2.97126 7.2172V7.21991L2.97708 7.23733L2.97887 7.24253L2.98133 7.24954V7.25271L2.98827 7.27261L2.9905 7.27917L2.99946 7.30359L3.0008 7.30699V7.30925L3.01042 7.33481L3.01221 7.33933L3.02228 7.36534L3.02363 7.36851L3.03258 7.39112L3.03414 7.39497V7.39655V7.39859C3.03772 7.40741 3.04153 7.41646 3.04533 7.4255L3.04668 7.42889L3.05787 7.45558L3.05943 7.45943L3.06816 7.47956L3.07062 7.48521L3.07286 7.49019L3.08472 7.5171V7.51869L3.08606 7.52163L3.0986 7.54922V7.55148V7.55306L3.10218 7.56075L3.1118 7.58179V7.58314L3.1165 7.59287L3.1259 7.613C3.41811 8.12903 3.78305 8.59935 4.20926 9.00917C4.54745 9.37318 4.94626 9.67434 5.38752 9.89893C5.70312 10.0859 6.06005 10.1898 6.42568 10.2013C6.76964 10.1952 7.10478 10.0903 7.392 9.89893C7.87329 9.59554 8.31856 9.23735 8.71908 8.8314C9.09131 8.47687 9.40661 8.06588 9.65363 7.61323C10.0206 6.91933 9.95037 6.41451 9.68003 5.66813C9.4609 5.17049 9.15221 4.71831 8.76966 4.33462C8.36955 3.93208 7.91334 3.59087 7.4155 3.32181C7.09297 3.12755 6.72782 3.01712 6.35272 3.00042C6.04454 3.00372 5.74297 3.09116 5.47994 3.25351C4.98287 3.55678 4.52749 3.92492 4.12557 4.34841L4.11841 4.35565C3.70014 4.73382 3.35376 5.18606 3.09636 5.69007L3.09546 5.68962ZM2.49526 10.1L2.57828 10.1832L2.49526 10.1ZM9.7832 9.60468C9.71808 9.67253 9.64893 9.74355 9.5753 9.81819C9.48914 9.90527 9.40074 9.99189 9.311 10.0772C9.40052 9.99189 9.49004 9.90527 9.5753 9.81819C9.64937 9.7431 9.7183 9.67208 9.7832 9.60423V9.60468ZM11.091 7.81158C11.0754 7.84257 11.0592 7.874 11.0427 7.90544C10.9345 8.1105 10.8157 8.30965 10.6869 8.50209C10.8158 8.30966 10.9345 8.1105 11.0427 7.90544C11.0595 7.87355 11.0747 7.84211 11.0913 7.8109L11.091 7.81158ZM11.2392 5.30761C11.3202 5.55952 11.3795 5.81801 11.4166 6.08022C11.38 5.8177 11.3206 5.55894 11.2392 5.30693V5.30761ZM9.2752 2.39744C9.39291 2.50419 9.50712 2.61359 9.61782 2.72562C9.9351 3.04993 10.2255 3.40002 10.4861 3.77235C10.5994 3.93429 10.7016 4.09284 10.79 4.24392C10.4613 3.69189 10.0677 3.18208 9.61782 2.72562C9.50742 2.61328 9.39321 2.50389 9.2752 2.39744ZM7.2349 1.0015C7.31659 1.0413 7.40051 1.08473 7.49114 1.13403C7.74246 1.26974 7.98975 1.41992 8.22585 1.57756C7.9902 1.41924 7.74291 1.27087 7.49137 1.13403C7.40051 1.08563 7.31681 1.0404 7.2349 1.0015ZM3.24585 7.23348C3.20365 7.13422 3.16806 7.03221 3.13933 6.92815C3.1033 6.79902 3.08279 6.66597 3.07823 6.53189C3.09067 6.7741 3.14758 7.01186 3.24607 7.23303L3.24585 7.23348Z" fill="#222222"/>
<path d="M20.0564 9.44153C20.346 9.44153 20.6125 9.43572 20.8563 9.42411C21.1001 9.4125 21.3516 9.38749 21.6107 9.34904C21.6333 9.34367 21.6569 9.34401 21.6793 9.35003C21.7017 9.35606 21.7223 9.36758 21.7392 9.38358C21.7562 9.39957 21.7691 9.41954 21.7766 9.44172C21.7841 9.46391 21.786 9.48761 21.7823 9.51075V10.377C21.7823 10.4769 21.7215 10.5464 21.5993 10.5848C21.301 10.6781 20.995 10.7438 20.685 10.7811C20.3554 10.8259 20.0233 10.849 19.6908 10.8504C19.1565 10.8651 18.6245 10.7749 18.1243 10.5846C17.7181 10.4226 17.3601 10.1578 17.0844 9.81563C16.8045 9.45295 16.6055 9.03325 16.5013 8.58546C16.3733 8.04482 16.3121 7.49027 16.3189 6.93441V6.40312C16.3122 5.84758 16.3717 5.29323 16.4961 4.75205C16.5962 4.30499 16.7911 3.88526 17.0676 3.5219C17.3403 3.17902 17.6969 2.91396 18.102 2.7529C18.6022 2.56259 19.1342 2.47235 19.6685 2.48716C20.2897 2.49169 20.9064 2.593 21.4971 2.78752C21.5495 2.80074 21.5972 2.82881 21.6343 2.86847C21.659 2.90598 21.6711 2.95059 21.6686 2.99559V3.82723C21.6723 3.85037 21.6702 3.87407 21.6627 3.89625C21.6552 3.91843 21.6423 3.93841 21.6254 3.95439C21.6084 3.97038 21.5879 3.98188 21.5655 3.98791C21.5431 3.99394 21.5194 3.99429 21.4968 3.98893C21.2834 3.95878 21.0509 3.93563 20.7997 3.9195C20.5484 3.90336 20.2932 3.89583 20.0339 3.89688C19.7206 3.88801 19.4086 3.93897 19.1141 4.04708C18.8726 4.14243 18.6639 4.30706 18.5139 4.52068C18.3496 4.76573 18.2386 5.04325 18.1883 5.3349C18.1184 5.71774 18.0859 6.1066 18.091 6.49586V6.8539C18.0858 7.24334 18.1202 7.63228 18.1938 8.01461C18.2472 8.30556 18.3622 8.58138 18.531 8.82317C18.6868 9.0345 18.8989 9.19671 19.1425 9.29089C19.4353 9.39808 19.7453 9.44903 20.0566 9.44109L20.0564 9.44153ZM23.1082 2.81149C23.1082 2.68822 23.1649 2.6267 23.2795 2.6267H24.6966C24.7214 2.62311 24.7468 2.62542 24.7706 2.63344C24.7945 2.64145 24.8161 2.65496 24.8338 2.67289C24.8515 2.69082 24.8648 2.71267 24.8727 2.73672C24.8806 2.76078 24.883 2.78639 24.8795 2.81149V8.78247C24.8668 8.95621 24.9066 9.12973 24.9938 9.28004C25.0539 9.34222 25.1277 9.38925 25.209 9.41734C25.2904 9.44543 25.3772 9.45378 25.4623 9.44175H28.1703C28.1952 9.43816 28.2204 9.44047 28.2442 9.44849C28.268 9.4565 28.2896 9.47001 28.3074 9.48794C28.3251 9.50587 28.3385 9.52774 28.3465 9.5518C28.3544 9.57586 28.3566 9.60144 28.353 9.62654V10.4813C28.353 10.6275 28.2885 10.7045 28.159 10.7122C27.74 10.7506 27.2599 10.7833 26.7188 10.8103C26.1776 10.8373 25.6176 10.8508 25.0386 10.8508C24.7331 10.8564 24.4279 10.8254 24.1297 10.7583C23.9092 10.7103 23.7035 10.6095 23.5297 10.4643C23.3739 10.324 23.2609 10.1417 23.2039 9.93888C23.1336 9.67934 23.1011 9.41088 23.1071 9.14186L23.1082 2.81149ZM31.188 10.5156C31.1918 10.5423 31.1894 10.5695 31.181 10.5951C31.1726 10.6206 31.1583 10.6438 31.1395 10.6629C31.1206 10.682 31.0977 10.6963 31.0724 10.7048C31.0471 10.7133 31.0203 10.7158 30.9939 10.712H29.6108C29.5844 10.7158 29.5576 10.7133 29.5323 10.7048C29.507 10.6963 29.4841 10.682 29.4652 10.6629C29.4464 10.6438 29.4321 10.6206 29.4237 10.5951C29.4153 10.5695 29.4127 10.5423 29.4165 10.5156V2.83454C29.4165 2.69597 29.4813 2.6267 29.6108 2.6267H30.9939C31.1236 2.6267 31.1881 2.69597 31.188 2.83454V10.5156ZM36.5367 9.44131C36.8264 9.44131 37.0932 9.4355 37.337 9.42389C37.5808 9.41228 37.8322 9.38724 38.0912 9.34879C38.1138 9.34344 38.1372 9.34381 38.1596 9.34984C38.182 9.35587 38.2027 9.36737 38.2197 9.38336C38.2366 9.39934 38.2495 9.4193 38.257 9.44147C38.2646 9.46365 38.2664 9.48738 38.2627 9.51052V10.3768C38.2627 10.4769 38.2018 10.5462 38.0798 10.5846C37.7816 10.6779 37.4754 10.7436 37.1654 10.7809C36.8358 10.8256 36.5038 10.8488 36.1713 10.8501C35.637 10.8649 35.1049 10.7746 34.6047 10.5844C34.1986 10.4224 33.8404 10.1576 33.5647 9.81541C33.2851 9.45264 33.0867 9.03294 32.9829 8.58523C32.8548 8.04461 32.7933 7.49006 32.8 6.93418V6.4029C32.7934 5.84736 32.8529 5.29301 32.9772 4.75183C33.0774 4.3048 33.2726 3.88509 33.5489 3.52168C33.8217 3.1788 34.1782 2.91374 34.5833 2.75268C35.0835 2.56239 35.6156 2.47212 36.1498 2.48692C36.7711 2.49148 37.3879 2.59279 37.9786 2.78728C38.031 2.80054 38.0783 2.82864 38.1154 2.86825C38.1402 2.90576 38.1522 2.95037 38.1497 2.99536V3.82701C38.1535 3.85014 38.1516 3.87384 38.1441 3.89603C38.1366 3.91821 38.1239 3.93818 38.1069 3.95417C38.09 3.97017 38.0692 3.98169 38.0468 3.98772C38.0244 3.99374 38.001 3.99408 37.9784 3.98871C37.7649 3.95855 37.5324 3.93541 37.281 3.91927C37.0296 3.90314 36.7745 3.89561 36.5155 3.89666C36.2021 3.88776 35.8898 3.93873 35.5952 4.04686C35.3538 4.14221 35.1453 4.30683 34.9953 4.52046C34.8311 4.76561 34.7201 5.04309 34.6696 5.33468C34.6 5.71755 34.5673 6.10636 34.5724 6.49561V6.85365C34.5671 7.24308 34.6014 7.63205 34.6749 8.01439C34.7283 8.30538 34.8436 8.58122 35.0125 8.82295C35.1682 9.03438 35.3802 9.19661 35.6238 9.29067C35.9165 9.39787 36.2265 9.44882 36.5378 9.44087L36.5367 9.44131ZM45.3257 2.62648C45.3511 2.624 45.3765 2.62927 45.3989 2.64161C45.4213 2.65394 45.4396 2.67278 45.4513 2.6957C45.4623 2.72024 45.466 2.74746 45.462 2.77411C45.4581 2.80075 45.4467 2.82567 45.429 2.84586L42.9831 6.51892L45.749 10.5039C45.7638 10.5222 45.7731 10.5444 45.7761 10.5678C45.7791 10.5913 45.7757 10.6151 45.766 10.6366C45.7553 10.662 45.7367 10.683 45.7129 10.6966C45.6892 10.7102 45.6617 10.7155 45.6347 10.7117H44.0234C43.9569 10.7151 43.8904 10.7032 43.8291 10.6771C43.7764 10.6473 43.733 10.6033 43.7036 10.55L41.3604 6.94617V10.5152C41.3641 10.5419 41.3618 10.569 41.3534 10.5945C41.3449 10.6201 41.3307 10.6433 41.3119 10.6623C41.293 10.6814 41.27 10.6957 41.2448 10.7043C41.2195 10.7128 41.1927 10.7153 41.1663 10.7115H39.7829C39.7566 10.7153 39.7297 10.7128 39.7045 10.7043C39.6792 10.6958 39.6562 10.6814 39.6374 10.6623C39.6186 10.6433 39.6045 10.6201 39.5961 10.5945C39.5877 10.569 39.5851 10.5418 39.5889 10.5152V2.8341C39.5889 2.69553 39.6536 2.62626 39.7829 2.62626H41.1663C41.2957 2.62626 41.3602 2.69553 41.3604 2.8341V6.091L43.5432 2.76444C43.5724 2.72132 43.6119 2.68613 43.6577 2.66196C43.7036 2.63778 43.7546 2.62535 43.8063 2.62579L45.3257 2.62648Z" fill="#222222"/>
</svg>
