<svg width="48" height="20" viewBox="0 0 48 20" fill="none" xmlns="http://www.w3.org/2000/svg">
<path d="M1 4.6C1 2.61177 2.61177 1 4.6 1H15.4C17.3882 1 19 2.61177 19 4.6V15.4C19 17.3882 17.3882 19 15.4 19H4.6C2.61177 19 1 17.3882 1 15.4V4.6Z" stroke="#222222" stroke-width="2" stroke-linecap="round" stroke-linejoin="round"/>
<path d="M29 4.6C29 2.61177 30.6118 1 32.6 1H43.4C45.3882 1 47 2.61177 47 4.6V15.4C47 17.3882 45.3882 19 43.4 19H32.6C30.6118 19 29 17.3882 29 15.4V4.6Z" stroke="#222222" stroke-width="2" stroke-linecap="round" stroke-linejoin="round"/>
<path d="M39.2977 19.3325C39.179 19.3325 39.078 19.2909 38.9949 19.2078C38.9118 19.1247 38.8702 19.0237 38.8702 18.905V11.8066H37.4275C37.3087 11.8066 37.2078 11.7651 37.1247 11.6819C37.0416 11.5869 37 11.4801 37 11.3613V10.3461C37 10.2273 37.0416 10.1264 37.1247 10.0433C37.2078 9.96013 37.3087 9.91857 37.4275 9.91857H38.8702V8.18829C38.8702 6.06276 40.0339 5 42.3613 5H43.5725C43.7031 5 43.8041 5.04156 43.8753 5.12468C43.9584 5.19593 44 5.29686 44 5.42748V6.44275C44 6.57337 43.9584 6.68024 43.8753 6.76336C43.7922 6.84648 43.6913 6.88804 43.5725 6.88804H42.4326C41.9695 6.88804 41.6429 7.00085 41.4529 7.22646C41.2748 7.45208 41.1858 7.80237 41.1858 8.27735V9.91857H43.3944C43.525 9.91857 43.626 9.96013 43.6972 10.0433C43.7803 10.1145 43.8219 10.2154 43.8219 10.3461V11.3613C43.8219 11.4919 43.7803 11.5988 43.6972 11.6819C43.6141 11.7651 43.5131 11.8066 43.3944 11.8066H41.1858V18.905C41.1858 19.0237 41.1442 19.1247 41.0611 19.2078C40.9779 19.2909 40.877 19.3325 40.7583 19.3325H39.2977Z" fill="#222222"/>
<path d="M10 14C12.2091 14 14 12.2091 14 10C14 7.79086 12.2091 6 10 6C7.79086 6 6 7.79086 6 10C6 12.2091 7.79086 14 10 14Z" stroke="#222222" stroke-width="2" stroke-linecap="round" stroke-linejoin="round"/>
<path d="M15.3999 4.61963V4.6001" stroke="#222222" stroke-width="2" stroke-linecap="round" stroke-linejoin="round"/>
</svg>
