<svg width="115" height="27" viewBox="0 0 115 27" fill="none" xmlns="http://www.w3.org/2000/svg">
<path fill-rule="evenodd" clip-rule="evenodd" d="M24.5223 10.3717L0.0132628 10.5662L0 26.5992C8.97205 26.516 19.1012 26.965 27.8661 26.4279C32.9522 26.3797 36.538 17.2125 29.4891 13.122C31.8216 11.6138 33.7612 10.4299 33.3468 6.08327C32.6223 -1.50586 23.2773 0.153634 16.4653 0.153634C12.669 0.153634 8.87424 0.158627 5.07786 0.158627L0.0646543 6.76169L13.0751 6.75338L24.3034 6.82488C26.3127 7.638 26.0508 9.82794 24.5223 10.3717ZM8.21609 19.321L8.18293 15.6911L17.6822 15.8573C19.1957 15.8457 23.4613 15.8357 24.3615 15.9638C25.7026 16.1517 25.8369 19.4191 24.0912 19.4108L8.21609 19.321Z" fill="#DBCEC6"/>
<path fill-rule="evenodd" clip-rule="evenodd" d="M86.9768 20.0178L90.6074 20.0061L90.629 13.1403C91.181 13.4562 91.5076 14.0715 92.2221 14.8364L96.4114 20.0178L99.4717 20.0161L99.5214 6.73512L95.851 6.72846L95.8527 13.6957C94.6525 12.54 90.4449 6.92135 89.9642 6.74177L86.9884 6.72681L86.9768 20.0178Z" fill="#DBCEC6"/>
<path fill-rule="evenodd" clip-rule="evenodd" d="M64.3842 11.958L58.4675 11.9114L58.5769 9.56686L65.1203 9.55522L65.097 6.74505L54.8518 6.7251L54.8535 19.9878L65.4352 20.0177L65.4452 17.146L58.5437 17.1028L58.5504 14.7316L64.3759 14.6751L64.3842 11.958Z" fill="#DBCEC6"/>
<path fill-rule="evenodd" clip-rule="evenodd" d="M68.272 19.9845L72.0816 20.0194L73.0746 17.4819L78.552 17.4337C79.0676 18.054 79.424 19.183 79.6926 20.0128L83.5254 20.0178L77.7762 6.76005L74.1356 6.72681L68.272 19.9845ZM75.8664 10.4914L77.564 14.6435L74.2633 14.6651L75.8664 10.4914Z" fill="#DBCEC6"/>
<path fill-rule="evenodd" clip-rule="evenodd" d="M104.696 16.1135L103.603 18.7474C104.904 20.2805 112.499 21.634 114.533 17.7414C115.693 15.5182 114.508 13.6076 112.985 12.831C111.391 12.0179 108.717 12.1426 107.474 10.8606C107.733 8.02548 111.861 9.94937 113.353 10.3518C113.59 9.37237 114.213 8.53264 114.337 7.4701C111.922 6.82326 109.311 5.68256 106.435 7.03111C105.211 7.60645 104.565 7.99389 104.062 9.27925C103.547 10.6012 103.832 12.1576 104.523 13.0106C106.009 14.8464 110.546 14.8065 111.139 15.8108C111.938 17.161 109.727 17.4504 108.361 17.3157C106.597 17.1427 105.952 16.451 104.696 16.1135Z" fill="#DBCEC6"/>
<path fill-rule="evenodd" clip-rule="evenodd" d="M41.7702 9.62517L46.3159 9.6418C46.291 11.1051 46.4866 14.9645 46.2297 16.0453C46.0208 16.92 45.4522 17.3872 44.3696 17.2525C43.5921 17.1544 43.2771 16.7836 42.8245 16.3879C42.7847 16.353 42.667 16.2482 42.6289 16.2183C42.3504 16.0004 42.6206 16.1517 42.3073 16.0087C41.5712 16.7603 40.9164 17.7896 40.3594 18.3118C42.1498 20.7245 47.5062 21.1269 49.1855 18.4631C50.5532 16.2948 49.9581 9.87293 50.0078 6.74183L41.742 6.72021L41.7702 9.62517Z" fill="#DBCEC6"/>
<path d="M71.1199 25.2256H69.9494V26.3147H71.2541V26.6423H69.5615V23.621H71.1878V23.9485H69.9511V24.903H71.1215V25.2256H71.1199Z" fill="#DBCEC6"/>
<path d="M71.7051 26.1652C71.8792 26.2733 72.1345 26.3631 72.4014 26.3631C72.7992 26.3631 73.0313 26.1519 73.0313 25.8476C73.0313 25.5649 72.8705 25.4036 72.4644 25.2473C71.9737 25.0727 71.6687 24.8167 71.6687 24.3926C71.6687 23.9221 72.0566 23.5729 72.6418 23.5729C72.9501 23.5729 73.1739 23.6444 73.3065 23.7209L73.1988 24.0385C73.101 23.9853 72.9004 23.8955 72.6268 23.8955C72.2157 23.8955 72.0599 24.1416 72.0599 24.3477C72.0599 24.6304 72.2422 24.7684 72.6583 24.9297C73.1673 25.1259 73.4259 25.3737 73.4259 25.816C73.4259 26.2816 73.0827 26.6857 72.3715 26.6857C72.0814 26.6857 71.7648 26.6009 71.604 26.4928L71.7051 26.1652Z" fill="#DBCEC6"/>
<path d="M74.5333 23.952H73.6182V23.6211H75.8462V23.952H74.9262V26.6391H74.5333V23.952Z" fill="#DBCEC6"/>
<path d="M76.9902 26.6407V26.3996L77.2986 26.1003C78.0396 25.392 78.3745 25.0162 78.3795 24.5772C78.3795 24.2812 78.2369 24.0085 77.8026 24.0085C77.539 24.0085 77.3201 24.1432 77.1859 24.2546L77.0615 23.9769C77.2621 23.8073 77.5489 23.6809 77.8838 23.6809C78.5088 23.6809 78.7724 24.1116 78.7724 24.5273C78.7724 25.0644 78.3845 25.5 77.7727 26.0903L77.5406 26.3048V26.3132H78.8453V26.6407H76.9902Z" fill="#DBCEC6"/>
<path d="M81.2127 25.1525C81.2127 26.1419 80.8463 26.689 80.203 26.689C79.6361 26.689 79.2515 26.1552 79.2432 25.1924C79.2432 24.2164 79.6626 23.6776 80.2528 23.6776C80.8645 23.6793 81.2127 24.2263 81.2127 25.1525ZM79.6361 25.1974C79.6361 25.954 79.8682 26.3847 80.2263 26.3847C80.6274 26.3847 80.8198 25.9141 80.8198 25.1708C80.8198 24.4541 80.6374 23.9836 80.2296 23.9836C79.8864 23.9836 79.6361 24.4059 79.6361 25.1974Z" fill="#DBCEC6"/>
<path d="M81.5757 26.6407V26.3996L81.884 26.1003C82.6251 25.392 82.96 25.0162 82.9649 24.5772C82.9649 24.2812 82.8223 24.0085 82.388 24.0085C82.1244 24.0085 81.9056 24.1432 81.7713 24.2546L81.647 23.9769C81.8476 23.8073 82.1344 23.6809 82.4692 23.6809C83.0942 23.6809 83.3578 24.1116 83.3578 24.5273C83.3578 25.0644 82.9699 25.5 82.3582 26.0903L82.1261 26.3048V26.3132H83.4308V26.6407H81.5757Z" fill="#DBCEC6"/>
<path d="M85.7964 25.1525C85.7964 26.1419 85.43 26.689 84.7868 26.689C84.2198 26.689 83.8352 26.1552 83.8269 25.1924C83.8269 24.2164 84.2463 23.6776 84.8365 23.6776C85.4482 23.6793 85.7964 24.2263 85.7964 25.1525ZM84.2198 25.1974C84.2198 25.954 84.4519 26.3847 84.81 26.3847C85.2112 26.3847 85.4035 25.9141 85.4035 25.1708C85.4035 24.4541 85.2211 23.9836 84.8133 23.9836C84.4701 23.9836 84.2198 24.4059 84.2198 25.1974Z" fill="#DBCEC6"/>
</svg>
