<svg width="45" height="13" viewBox="0 0 45 13" fill="none" xmlns="http://www.w3.org/2000/svg">
<path fill-rule="evenodd" clip-rule="evenodd" d="M44.5574 6.82456C44.8927 6.27252 44.8609 5.5602 44.5451 5.10824C44.3027 4.76052 42.5625 2.5827 41.9799 1.99061C41.2937 1.29287 40.6963 0.950195 40.025 0.950195H25.6908C24.3935 0.950195 23.9546 1.38007 23.9546 2.86729V8.77427C23.9546 10.2304 24.0692 10.8745 25.9689 10.8745H40.025C40.6963 10.8745 41.3784 10.3457 41.8837 9.81758C42.4667 9.20959 44.2581 7.3176 44.5574 6.82456ZM27.1412 3.19481V3.23371C26.5549 3.56623 25.9209 3.94615 25.3491 4.76382V3.20274C25.3491 2.96815 25.3663 2.81717 25.6394 2.81717H26.814C27.1252 2.81717 27.1412 3.0049 27.1412 3.19481ZM35.0216 8.79069V8.8745C35.0216 8.88222 35.0218 8.89077 35.022 8.89998C35.0248 9.01302 35.0301 9.22594 34.6784 9.2261H33.455C33.1553 9.2261 33.1629 8.97969 33.166 8.88111C33.1662 8.8727 33.1664 8.86536 33.1664 8.85935V8.23497H33.1677V5.1963C33.1678 4.77746 33.1086 4.47906 32.9901 4.30108C32.8716 4.12312 32.6784 4.03413 32.4106 4.03413C31.8314 4.03413 31.4187 4.56931 31.1789 4.88024C31.1492 4.91882 31.1221 4.95395 31.0977 4.98417V8.79077H31.0963V8.87458C31.0963 8.8823 31.0965 8.89084 31.0967 8.90004C31.0995 9.01306 31.1047 9.22593 30.753 9.22593H29.5456C29.2462 9.22593 29.2539 8.97969 29.2569 8.88104C29.2572 8.87259 29.2574 8.86522 29.2574 8.85918V8.23481H29.2589V5.19613C29.2584 4.7773 29.2002 4.47889 29.0845 4.30092C28.9687 4.12295 28.7793 4.03396 28.5164 4.03396C27.8951 4.03396 27.4903 4.59025 27.2664 4.89803C27.2434 4.92959 27.2223 4.95854 27.2031 4.984V8.8745C27.2031 8.88222 27.2033 8.89076 27.2036 8.89997C27.2064 9.013 27.2116 9.22585 26.8601 9.22585H25.6371C25.3376 9.22585 25.3453 8.9796 25.3483 8.88095C25.3486 8.8725 25.3488 8.86514 25.3488 8.8591V6.45364C25.3488 5.01382 26.976 3.60864 27.3353 3.29834C27.3693 3.26897 27.3919 3.24942 27.4008 3.24056C27.8579 2.86452 28.5028 2.67019 29.0576 2.67019C29.5368 2.67022 29.9271 2.76184 30.2282 2.94507C30.5294 3.1283 30.7547 3.41362 30.904 3.80102C31.2079 3.44453 31.5248 3.1669 31.8545 2.96815C32.1832 2.76974 32.5606 2.66658 32.9445 2.67019C34.3298 2.67002 35.0224 3.45777 35.0224 5.03342V8.79069H35.0216ZM38.9896 9.17053C40.2803 9.17053 41.3219 8.51675 41.7567 7.3469V7.34678C41.786 7.26895 41.7121 7.10596 41.5453 7.10608H40.5234C40.5234 7.10608 40.2728 7.09493 40.1506 7.29529C39.8695 7.75576 39.5466 7.99072 39.0016 7.99072C38.1082 7.99072 37.602 7.42444 37.5785 6.37462H41.5453C41.8578 6.37462 41.9309 6.15361 41.9214 5.90345C41.8471 3.94565 40.6766 2.73026 38.9314 2.73026C37.1673 2.73026 35.8853 4.09845 35.8853 5.98603C35.8853 7.89663 37.1202 9.17053 38.9896 9.17053ZM37.5785 5.31355C37.6726 4.46384 38.1899 3.94491 38.9314 3.94491C39.7658 3.94491 40.1659 4.57031 40.2365 5.31355H37.5785Z" fill="#222222"/>
<path fill-rule="evenodd" clip-rule="evenodd" d="M8.07852 1.28325C7.92139 1.03285 7.71756 0.815028 7.47814 0.641658C7.23872 0.473444 6.9758 0.341552 6.69782 0.250262C6.38908 0.149698 6.07019 0.083446 5.74695 0.0527066C5.37715 0.0163411 5.00578 -0.00122803 4.63423 6.66457e-05H1.37797C1.08516 6.66457e-05 0.778238 0.192379 0.778238 0.555039V5.83518C1.19073 6.7152 1.99425 7.64947 2.9078 8.09599V7.0488C2.9078 6.49622 3.32392 6.37277 3.49604 6.37277H4.45885C5.78506 6.37277 6.79728 6.09425 7.49552 5.53726C8.19375 4.98105 8.54283 4.15486 8.54283 3.05869C8.54481 2.74196 8.50807 2.42617 8.43346 2.11835C8.35927 1.82322 8.2395 1.54147 8.07852 1.28325ZM6.181 3.99499C6.06858 4.19012 5.90087 4.34759 5.6991 4.44758C5.48041 4.55191 5.24417 4.61451 5.00252 4.63213C4.73935 4.65559 4.46758 4.66735 4.18722 4.66739H3.27227C3.04846 4.66739 2.9078 4.4852 2.9078 4.21642V2.05766C2.9078 1.81556 3.06563 1.71399 3.25489 1.71399H4.18722C4.49092 1.71399 4.77573 1.72276 5.04166 1.74029C5.28099 1.75121 5.51604 1.80795 5.73403 1.90746C5.92833 1.99995 6.08914 2.15045 6.19429 2.3382C6.30511 2.53129 6.36051 2.80378 6.36059 3.15567C6.36059 3.51297 6.30073 3.79274 6.181 3.99499ZM2.9078 8.43722C1.90305 8.03575 1.22946 7.55683 0.778238 7.08203V9.63106C0.778238 9.63106 0.74108 10.0468 1.14569 10.0468H2.56632C2.95602 10.0468 2.90796 9.63106 2.90796 9.63106V8.43722H2.9078ZM23.0409 2.77778H21.7659C21.5068 2.77778 21.3361 2.88669 21.2333 3.17165C21.1305 3.45661 19.7791 7.22038 19.7791 7.22038C19.7791 7.22038 18.4864 3.53435 18.3847 3.24894C18.283 2.96353 18.1159 2.77778 17.8149 2.77778H16.6434C16.2302 2.77778 16.2302 3.10241 16.2814 3.23114C16.323 3.33519 17.9273 7.73246 18.5383 9.40761C18.6824 9.80314 18.7393 9.92213 18.7438 10.0687C18.7482 10.2152 18.5993 10.5228 18.4963 10.6993C18.4491 10.7799 18.3948 10.8562 18.3341 10.9272C19.532 10.5686 20.9127 9.26716 21.6266 7.85727C22.3326 5.8924 23.2636 3.29683 23.304 3.16405C23.369 2.94899 23.3683 2.77778 23.0409 2.77778ZM17.4111 11.3011C17.3004 11.2992 17.1899 11.2912 17.0801 11.2772C16.9457 11.2594 16.6943 11.2845 16.6943 11.5048V12.4892C16.6943 12.8649 16.8739 12.89 16.9728 12.9122C17.2703 12.9742 17.5737 13.0035 17.8776 12.9997C18.2804 12.9997 18.6308 12.9264 18.929 12.7799C19.2301 12.6308 19.4984 12.4232 19.718 12.169C19.9603 11.886 20.165 11.573 20.3271 11.2376C20.505 10.8772 20.6759 10.4803 20.8396 10.0467C20.8396 10.0467 20.9098 9.85074 21.0254 9.52974C20.6737 9.88476 19.0162 11.4566 17.4111 11.3011ZM15.4964 3.94639C15.4272 3.78186 15.3327 3.62916 15.2163 3.49385C15.1004 3.36396 14.9676 3.25011 14.8216 3.1553C14.664 3.05285 14.4968 2.966 14.3224 2.89598C14.1443 2.82643 13.9612 2.77067 13.7746 2.72918C13.5624 2.68272 13.3471 2.65188 13.1305 2.63691C12.8965 2.61949 12.6335 2.6107 12.3415 2.61057C10.4101 2.61057 9.31026 3.22102 9.04211 4.44193C8.95491 4.82077 9.32967 4.84303 9.32967 4.84303H10.5179C10.828 4.84303 10.8147 4.74307 10.9652 4.46257C11.0194 4.30993 11.117 4.17641 11.246 4.07838C11.474 3.90272 11.8158 3.81488 12.2713 3.81485C12.7096 3.81485 13.028 3.89972 13.2266 4.06947C13.4252 4.23921 13.542 4.49705 13.5772 4.84303C13.5772 5.24421 13.452 5.51187 12.9671 5.51187C11.7848 5.46893 10.5143 5.6027 9.79868 6.01296C9.08311 6.42322 8.67858 7.2253 8.67858 8.08665C8.67858 8.438 8.74138 8.74563 8.86705 9.00957C8.98881 9.26831 9.16882 9.49543 9.39296 9.67305C9.63081 9.85855 9.90343 9.99454 10.1947 10.073C10.5258 10.1638 10.8678 10.2082 11.2111 10.2051C11.7254 10.2051 12.1797 10.1406 12.5741 10.0116C12.9684 9.88291 13.5786 9.4584 13.6563 9.39647V9.62276C13.6563 9.84698 13.7246 10.047 13.9921 10.047H15.3738C15.6535 10.047 15.7157 9.84698 15.7157 9.60088V5.3442C15.7181 5.0796 15.7006 4.8152 15.6632 4.55324C15.6336 4.3447 15.5775 4.14078 15.4964 3.94639ZM13.6123 8.11989C13.6123 8.11989 13.2555 8.86102 11.9822 8.86102C11.6318 8.86102 11.347 8.78196 11.1277 8.62383C10.9084 8.46571 10.7988 8.21956 10.799 7.88547C10.799 7.45155 10.9772 7.14524 11.3338 6.96659C11.69 6.78807 12.4031 6.68609 12.9375 6.6986C13.4719 6.71111 13.6123 7.0488 13.6123 7.28194V8.12006V8.11989Z" fill="#222222"/>
</svg>
