<svg width="41" height="13" viewBox="0 0 41 13" fill="none" xmlns="http://www.w3.org/2000/svg">
<path d="M18.1623 12.7817H14.8938L16.9395 0.225098H20.208L18.1623 12.7817Z" fill="#222222"/>
<path d="M12.1427 0.225039L9.02538 8.86147L8.65588 7.00049L7.55407 1.35372C7.55407 1.35372 7.4197 0.22168 6.00213 0.22168H0.855875L0.79541 0.433307C0.79541 0.433307 2.37086 0.762506 4.21505 1.86767L7.05691 12.7783H10.4598L15.6631 0.225039H12.1427Z" fill="#222222"/>
<path d="M37.8604 12.7817H40.8635L38.2434 0.225098H35.6131C34.4005 0.225098 34.1049 1.16231 34.1049 1.16231L29.2307 12.785H32.6369L33.3188 10.9207H37.4741L37.8604 12.7817ZM34.2628 8.34086L35.9793 3.64138L36.9467 8.34086H34.2628Z" fill="#222222"/>
<path d="M29.486 3.24496L29.9529 0.547545C29.9529 0.547545 28.5118 0 27.0137 0C25.3912 0 21.5382 0.708785 21.5382 4.15866C21.5382 7.40362 26.0596 7.44393 26.0596 9.14703C26.0596 10.8501 22.0051 10.5478 20.6648 9.47287L20.1777 12.2912C20.1777 12.2912 21.639 13 23.8695 13C26.1 13 29.4658 11.8444 29.4658 8.70026C29.4658 5.43514 24.9041 5.12946 24.9041 3.71189C24.9041 2.29096 28.0886 2.47235 29.486 3.24496Z" fill="#222222"/>
<path d="M8.65923 7.00049L7.55743 1.35372C7.55743 1.35372 7.42306 0.22168 6.00549 0.22168H0.855875L0.79541 0.433307C0.79541 0.433307 3.27112 0.947261 5.64942 2.86871C7.91686 4.70954 8.65923 7.00049 8.65923 7.00049Z" fill="#222222"/>
</svg>
