<svg width="33" height="22" viewBox="0 0 33 22" fill="none" xmlns="http://www.w3.org/2000/svg">
<path d="M18.2651 1H3.75286C2.60788 1 1.67969 1.95513 1.67969 3.13333V13.8C1.67969 14.9782 2.60788 15.9333 3.75286 15.9333H18.2651C19.4101 15.9333 20.3383 14.9782 20.3383 13.8V3.13333C20.3383 1.95513 19.4101 1 18.2651 1Z" stroke="#222222" stroke-width="1.5" stroke-linecap="round" stroke-linejoin="round"/>
<path d="M21.1155 6.60059H29.6674C30.9555 6.60059 31.9997 7.5216 31.9997 8.65773V18.9434C31.9997 20.0796 30.9555 21.0006 29.6674 21.0006H13.3411C12.053 21.0006 11.0088 20.0796 11.0088 18.9434V16.6577" stroke="#222222" stroke-width="1.5" stroke-linecap="round" stroke-linejoin="round"/>
<path d="M1.67969 6.60059H20.3383" stroke="#222222" stroke-width="1.5" stroke-linecap="round" stroke-linejoin="round"/>
<path d="M21.1156 9.80078C23.195 9.80078 25.0028 11.5916 25.0028 13.8008C25.0028 16.0099 23.3171 17.8008 21.2377 17.8008C19.8649 17.8008 18.6637 17.0202 18.0059 15.8541" stroke="#222222" stroke-width="1.5"/>
</svg>
