<svg width="71" height="20" viewBox="0 0 71 20" fill="none" xmlns="http://www.w3.org/2000/svg">
<path d="M9.884 20C9.4033 19.9973 8.92557 19.9236 8.46595 19.7811C7.96192 19.6247 7.47475 19.4173 7.0118 19.1621C6.37872 18.8328 5.77393 18.4506 5.20373 18.0194C4.69053 17.6127 4.20547 17.171 3.75198 16.6972C3.13772 16.0757 2.56472 15.44 2.09353 14.8561C1.57239 14.2346 1.12242 13.5555 0.752185 12.8317L0.720887 12.7656V12.7635L0.713665 12.7482V12.7447V12.7412L0.677208 12.6622L0.6748 12.657L0.672392 12.6518L0.637999 12.5756L0.633528 12.5659V12.5631L0.608077 12.506L0.600166 12.4883L0.594319 12.4747L0.589504 12.4639V12.4618L0.563021 12.4009L0.56027 12.394L0.553047 12.3873L0.521749 12.3136L0.51659 12.3014L0.48598 12.2266L0.483916 12.2217L0.481853 12.2168L0.452962 12.1438L0.449523 12.1351L0.421664 12.0631V12.0606L0.417881 12.0509L0.391398 11.9813L0.38899 11.9743L0.385895 11.9663C0.37764 11.944 0.36973 11.9218 0.361475 11.8988V11.8943L0.35666 11.8807C0.347374 11.855 0.340151 11.8337 0.333617 11.815V11.8108L0.328458 11.7951L0.301631 11.7262L0.295096 11.706L0.274116 11.642L0.270677 11.6319L0.267925 11.6218C0.260359 11.5982 0.254168 11.5776 0.248321 11.5589L0.242474 11.539L0.225621 11.4827L0.222526 11.4719V11.4698L0.219086 11.4576L0.20189 11.4019L0.199138 11.3925L0.196387 11.3783C0.19054 11.3563 0.185381 11.3372 0.180566 11.3191L0.177126 11.3087L0.174031 11.2972C0.16956 11.2794 0.164401 11.2603 0.159242 11.2387L0.154083 11.2179V11.213C0.150299 11.1973 0.14514 11.1782 0.140325 11.1559L0.133103 11.1284C0.128976 11.1114 0.124848 11.0936 0.120377 11.0721L0.117626 11.0588L0.11453 11.0449C0.110403 11.0261 0.10662 11.0073 0.102836 10.9889L0.0987093 10.9632C0.0959578 10.9499 0.0935502 10.9367 0.0907988 10.9235V10.9165V10.9106V10.9085L0.0856398 10.8807V10.8772L0.0784171 10.8365C0.0760096 10.8236 0.073946 10.8107 0.0718824 10.7979L0.0650037 10.7554C0.0629401 10.7432 0.0612204 10.7311 0.0591568 10.7206C0.0570932 10.7102 0.0546856 10.6904 0.0522781 10.675L0.0502145 10.6601L0.0481509 10.6451C0.0457433 10.6274 0.0433358 10.6103 0.0412722 10.5926L0.0333617 10.5654V10.5606C0.0299223 10.5404 0.0299223 10.5237 0.026483 10.5084C0.026483 10.499 0.0244194 10.4896 0.0233876 10.4802V10.4767C0.0216679 10.46 0.0199482 10.4419 0.0182285 10.4252C0.0182285 10.4155 0.0165089 10.4054 0.0154771 10.3956V10.3935C0.0141013 10.3792 0.0128402 10.3648 0.0116938 10.3504C0.0116938 10.3375 0.00963017 10.325 0.0089423 10.3121C0.00825443 10.2992 0.00722263 10.2867 0.00619083 10.2742C0.00619083 10.2599 0.00447115 10.2457 0.00378328 10.231C0.00309541 10.2164 0.00378328 10.207 0.00171967 10.1962C-0.000343935 10.1855 0.00171967 10.1674 0 10.1531V10.151C0 10.1388 0 10.1267 0 10.1145C0 10.1023 0 10.0953 0 10.0859V10.072C0 10.0588 0 10.0452 0 10.032C0 10.0188 0 10.0104 0 9.99965V9.91858C0 9.90188 0 9.88517 0 9.86847C0 9.85664 0 9.84481 0 9.83368C0 9.82254 0 9.8041 0 9.78914C0 9.78079 0 9.77278 0 9.76443V9.75225C0 9.73346 -3.20314e-10 9.71746 0.00240754 9.70145C0.00240754 9.69206 0.00240754 9.68231 0.00240754 9.67292C0.00240754 9.65761 0.00412722 9.64125 0.00550296 9.62177C0.00550296 9.61272 0.00550296 9.60333 0.00756656 9.59428C0.00756656 9.57688 0.010318 9.55948 0.0116938 9.54209V9.52504V9.51286C0.0132988 9.49546 0.0150185 9.47806 0.0168528 9.46066L0.0196043 9.43318V9.42761C0.0196043 9.41195 0.0230436 9.3949 0.0257951 9.37472C0.0257951 9.36845 0.0257951 9.36219 0.0282026 9.35593V9.34688V9.3434C0.0302663 9.326 0.0326738 9.30861 0.0350813 9.29121L0.0385207 9.2665C0.0412722 9.24771 0.0440236 9.22892 0.0467751 9.21048L0.0502145 9.1896V9.18647C0.052966 9.16907 0.0560614 9.14994 0.0598447 9.12801L0.0639719 9.10366C0.0674112 9.08348 0.0711945 9.06295 0.0749778 9.04242L0.0780732 9.02641V9.01771C0.0818565 8.99753 0.0859837 8.97665 0.0901109 8.95647L0.0935502 8.93907V8.93594C0.0976775 8.91576 0.102149 8.89488 0.10662 8.87435V8.86774L0.109371 8.85487C0.113498 8.83573 0.118314 8.81555 0.123817 8.79189L0.128288 8.77344C0.133103 8.75361 0.138262 8.73204 0.144797 8.70559L0.147204 8.6962L0.149268 8.68854C0.155115 8.66523 0.161305 8.64157 0.168184 8.61582L0.169904 8.60921L0.171967 8.6019C0.178846 8.5765 0.185037 8.55388 0.190884 8.53231L0.195355 8.5163C0.201202 8.49577 0.208424 8.47142 0.215647 8.44671V8.44393L0.21943 8.4314C0.226997 8.40635 0.234563 8.38199 0.241442 8.35972L0.245225 8.34754C0.252792 8.32353 0.261046 8.29778 0.270677 8.26855L0.27274 8.26194V8.25951C0.281339 8.23306 0.290625 8.20627 0.298879 8.18157L0.303007 8.17008C0.311605 8.14468 0.320891 8.11893 0.329489 8.09492L0.331553 8.08936L0.333617 8.08379C0.344279 8.05456 0.353221 8.03055 0.361475 8.00759L0.364915 7.99819C0.374889 7.97209 0.385207 7.94495 0.395869 7.91746L0.397932 7.91224C0.408251 7.88545 0.4196 7.85727 0.432326 7.82595L0.434734 7.82004C0.446427 7.79116 0.457433 7.76401 0.469127 7.73757L0.47291 7.72852C0.482884 7.70451 0.49389 7.67876 0.507304 7.6478L0.511431 7.6384C0.521749 7.61474 0.533099 7.58829 0.547888 7.55559L0.550983 7.54863C0.566461 7.51383 0.57953 7.4853 0.591568 7.4592C1.30833 5.90034 2.38003 4.81471 3.41837 3.76527L3.439 3.74439C4.04295 3.13337 4.60666 2.61178 5.16212 2.15004C5.79739 1.61627 6.47428 1.13533 7.18617 0.711925C7.58192 0.473678 8.00656 0.288408 8.44944 0.160757C8.82899 0.0546148 9.22091 0.000545388 9.6147 0C10.1442 0.00386712 10.6697 0.0943445 11.1707 0.267929C11.65 0.433638 12.114 0.64195 12.5571 0.890428C13.2647 1.27491 13.9436 1.71125 14.5883 2.19597C15.1952 2.65325 15.7685 3.15435 16.3039 3.69533C16.8627 4.26729 17.3743 4.88466 17.8334 5.54125C18.2624 6.12745 18.6164 6.76615 18.8872 7.44215C19.0637 7.91491 19.2136 8.39737 19.3364 8.88723C19.4434 9.31301 19.5036 9.74944 19.5159 10.1886C19.5244 10.619 19.4728 11.0484 19.3628 11.4642C19.2333 11.94 19.0491 12.3988 18.8143 12.8313C18.4797 13.4661 18.0883 14.0683 17.6449 14.6306C17.2033 15.1826 16.7306 15.7083 16.2292 16.2052C15.6876 16.7531 15.117 17.2709 14.5199 17.7564C13.895 18.2654 13.2396 18.7349 12.5574 19.1621C11.7628 19.6922 10.8356 19.9828 9.884 20ZM11.3474 17.7835C10.9506 18.0198 10.5219 18.1966 10.0749 18.3082C10.5219 18.1966 10.9506 18.0198 11.3474 17.7835ZM5.5088 16.9853C5.55042 17.0138 5.59341 17.0427 5.6364 17.0709C5.58894 17.0396 5.54732 17.0114 5.5088 16.9853ZM4.05671 15.7594L4.12997 15.8314L4.05671 15.7594ZM4.75731 8.75326L4.73461 8.80302V8.80685L4.71431 8.85278L4.71225 8.858L4.69299 8.90288V8.90532V8.90776L4.67407 8.95369V8.95682L4.65516 9.00449V9.00658L4.63796 9.05146V9.05459V9.05738L4.62248 9.09948L4.62042 9.1047L4.60563 9.14646V9.14994V9.15272C4.60082 9.16594 4.59634 9.18021 4.59119 9.19587V9.19935C4.58534 9.21709 4.58087 9.23031 4.57708 9.24319L4.57502 9.2498L4.56298 9.28981L4.56058 9.29817C4.55668 9.31092 4.55289 9.32368 4.54922 9.33644V9.34097V9.34549L4.53856 9.38376L4.52102 9.3949L4.51896 9.40325L4.5107 9.43457L4.5083 9.44396C4.5052 9.45649 4.50211 9.46901 4.49901 9.48154L4.4966 9.49163L4.48869 9.52643L4.48663 9.53617L4.48388 9.54939L4.47941 9.57062V9.57619V9.5821L4.47356 9.61098V9.61655L4.46668 9.63464L4.46255 9.65691L4.46049 9.66874V9.67396V9.68127C4.45877 9.69206 4.45705 9.7025 4.45533 9.71328L4.45327 9.7265L4.4488 9.75782L4.44673 9.77104C4.44673 9.78148 4.44398 9.79157 4.44261 9.80201V9.81001V9.81802C4.44261 9.82776 4.4402 9.8375 4.43917 9.84725V9.85699V9.86569V9.87508C4.43917 9.88169 4.43917 9.88831 4.43745 9.89457V9.91092V9.91962C4.43745 9.92623 4.43745 9.93319 4.43745 9.9398C4.43745 9.94641 4.43745 9.94989 4.43745 9.95511C4.43745 9.96033 4.43745 9.97321 4.43573 9.98225C4.43573 9.98573 4.43573 9.98921 4.43573 9.99304V9.9993C4.43573 10.0084 4.43573 10.0174 4.43573 10.0268C4.43573 10.0362 4.43573 10.04 4.43573 10.0466C4.43573 10.0543 4.43573 10.0623 4.43573 10.0699V10.0919C4.43573 10.1006 4.43573 10.1093 4.43573 10.118V10.1809C4.43573 10.1882 4.43573 10.1959 4.43573 10.2032C4.43573 10.2105 4.43573 10.2189 4.43573 10.2269V10.2471C4.43573 10.2554 4.43573 10.2638 4.43573 10.2721V10.2822V10.2923C4.43573 10.2979 4.43573 10.3031 4.43573 10.3086V10.317V10.3278V10.3382C4.43573 10.3452 4.43573 10.3525 4.43573 10.3594V10.3713V10.3841V10.4002C4.43573 10.4095 4.43745 10.4189 4.43848 10.4283C4.43848 10.4322 4.43848 10.4356 4.43848 10.4395V10.4457C4.43848 10.4555 4.44054 10.4649 4.44192 10.4743V10.4816V10.4913L4.44398 10.5059L4.4457 10.5192L4.44811 10.5359V10.5442L4.45052 10.5602V10.5686V10.5787L4.45258 10.5905V10.6006V10.6107L4.45464 10.6222L4.45911 10.6458V10.6524L4.46152 10.6656V10.6723L4.46496 10.6904L4.46771 10.7036C4.46978 10.714 4.47195 10.7243 4.47425 10.7345L4.47734 10.7495L4.48216 10.7707L4.48422 10.7805V10.7878V10.7944L4.49144 10.825L4.49488 10.8393C4.49798 10.8518 4.50073 10.8622 4.50314 10.8716L4.50658 10.8849L4.51518 10.9165L4.5169 10.9228L4.51861 10.9291C4.52137 10.9395 4.52446 10.9496 4.52721 10.96L4.531 10.9736L4.54028 11.0053L4.542 11.0112V11.0164L4.55266 11.0512V11.0564V11.062L4.55817 11.0787L4.56401 11.0964L4.56642 11.1034V11.1076L4.57536 11.1343L4.57812 11.1424L4.5819 11.1531V11.158L4.59256 11.1886L4.596 11.1987L4.60976 11.2363L4.61182 11.2415V11.245L4.62661 11.2843L4.62936 11.2913L4.64484 11.3313L4.6469 11.3362L4.66066 11.371L4.66307 11.3769V11.3793V11.3824C4.66857 11.396 4.67442 11.4099 4.68026 11.4239L4.68233 11.4291L4.69952 11.4701L4.70193 11.476L4.71535 11.507L4.71913 11.5157L4.72257 11.5234L4.7408 11.5648V11.5672L4.74286 11.5717L4.76212 11.6142V11.6177V11.6201L4.76762 11.6319L4.78241 11.6643V11.6664L4.78964 11.6813L4.80408 11.7123C5.25317 12.5062 5.81404 13.2298 6.46907 13.8603C6.98881 14.4203 7.60173 14.8836 8.27989 15.2291C8.76492 15.5167 9.31348 15.6767 9.8754 15.6944C10.404 15.6849 10.9191 15.5235 11.3605 15.2291C12.1002 14.7624 12.7845 14.2113 13.4 13.5868C13.9721 13.0413 14.4567 12.409 14.8363 11.7127C15.4004 10.6451 15.2924 9.86847 14.8769 8.72021C14.5401 7.95459 14.0657 7.25894 13.4778 6.66864C12.8629 6.04936 12.1617 5.52441 11.3966 5.11048C10.9009 4.81161 10.3398 4.64173 9.76328 4.61603C9.28964 4.6211 8.82617 4.75564 8.42193 5.00539C7.658 5.47197 6.95814 6.03834 6.34044 6.68986L6.32943 6.701C5.68661 7.2828 5.15428 7.97855 4.75868 8.75396L4.75731 8.75326ZM3.83487 15.5385L3.96247 15.6665L3.83487 15.5385ZM15.0355 14.7764C14.9354 14.8808 14.8291 14.9901 14.7159 15.1049C14.5835 15.2389 14.4477 15.3721 14.3097 15.5033C14.4473 15.3721 14.5849 15.2389 14.7159 15.1049C14.8298 14.9894 14.9357 14.8801 15.0355 14.7757V14.7764ZM17.0454 12.0178C17.0213 12.0655 16.9966 12.1139 16.9711 12.1622C16.8049 12.4777 16.6223 12.7841 16.4243 13.0801C16.6223 12.7841 16.8049 12.4777 16.9711 12.1622C16.9969 12.1132 17.0203 12.0648 17.0457 12.0168L17.0454 12.0178ZM17.2731 8.16556C17.3976 8.55311 17.4888 8.95079 17.5458 9.35419C17.4896 8.95031 17.3983 8.55222 17.2731 8.16452V8.16556ZM14.2547 3.68837C14.4356 3.8526 14.6112 4.0209 14.7813 4.19326C15.2689 4.6922 15.7152 5.23079 16.1157 5.80361C16.2898 6.05275 16.447 6.29667 16.5828 6.52911C16.0776 5.67982 15.4727 4.89551 14.7813 4.19326C14.6116 4.02044 14.4361 3.85214 14.2547 3.68837ZM11.1191 1.54076C11.2446 1.602 11.3736 1.66881 11.5129 1.74467C11.8991 1.95344 12.2792 2.18449 12.642 2.42702C12.2798 2.18344 11.8998 1.95518 11.5132 1.74467C11.3736 1.6702 11.2449 1.60061 11.1191 1.54076ZM4.98843 11.1284C4.92357 10.9757 4.86888 10.8188 4.82472 10.6587C4.76936 10.46 4.73783 10.2553 4.73082 10.0491C4.74994 10.4217 4.83741 10.7875 4.98877 11.1277L4.98843 11.1284Z" fill="#222222"/>
<path d="M30.8259 14.5233C31.271 14.5233 31.6806 14.5143 32.0552 14.4965C32.4299 14.4786 32.8164 14.4401 33.2147 14.381C33.2494 14.3727 33.2857 14.3732 33.3201 14.3825C33.3546 14.3918 33.3861 14.4095 33.4122 14.4341C33.4382 14.4587 33.4581 14.4894 33.4696 14.5236C33.4811 14.5577 33.4841 14.5942 33.4783 14.6297V15.9624C33.4783 16.1162 33.385 16.2231 33.1972 16.2822C32.7388 16.4257 32.2684 16.5268 31.7919 16.5842C31.2855 16.653 30.775 16.6886 30.264 16.6907C29.4429 16.7135 28.6253 16.5746 27.8565 16.2819C27.2323 16.0327 26.6821 15.6253 26.2584 15.0988C25.8281 14.5408 25.5223 13.8951 25.3623 13.2062C25.1655 12.3744 25.0714 11.5213 25.0818 10.6661V9.84872C25.0716 8.99402 25.1631 8.14117 25.3542 7.30856C25.508 6.62077 25.8077 5.97503 26.2325 5.416C26.6517 4.88849 27.1997 4.4807 27.8222 4.23291C28.591 3.94011 29.4087 3.80128 30.2298 3.82408C31.1844 3.83104 32.1323 3.98691 33.04 4.28618C33.1206 4.30651 33.1939 4.3497 33.251 4.41072C33.2889 4.46843 33.3075 4.53705 33.3037 4.60628V5.88574C33.3094 5.92135 33.3062 5.95781 33.2946 5.99193C33.2831 6.02605 33.2633 6.05679 33.2372 6.08139C33.2111 6.10598 33.1796 6.12368 33.1452 6.13295C33.1107 6.14222 33.0744 6.14276 33.0397 6.13452C32.7116 6.08813 32.3544 6.05252 31.9683 6.0277C31.5821 6.00288 31.1899 5.99128 30.7913 5.99291C30.3099 5.97925 29.8304 6.05766 29.3777 6.22398C29.0066 6.37068 28.6859 6.62395 28.4553 6.95261C28.2028 7.32961 28.0322 7.75658 27.9549 8.20528C27.8475 8.79427 27.7975 9.39252 27.8054 9.9914V10.5422C27.7974 11.1414 27.8503 11.7398 27.9633 12.328C28.0454 12.7756 28.2221 13.1999 28.4815 13.5719C28.721 13.8971 29.047 14.1466 29.4213 14.2915C29.8713 14.4564 30.3478 14.5348 30.8263 14.5226L30.8259 14.5233ZM35.5161 4.32305C35.5161 4.1334 35.6033 4.03875 35.7794 4.03875H37.9572C37.9954 4.03323 38.0345 4.03678 38.0711 4.04912C38.1077 4.06145 38.1409 4.08223 38.1681 4.10982C38.1954 4.1374 38.2157 4.17101 38.2279 4.20802C38.2401 4.24503 38.2438 4.28443 38.2383 4.32305V13.5093C38.2189 13.7766 38.2801 14.0436 38.414 14.2748C38.5064 14.3705 38.6197 14.4428 38.7448 14.4861C38.8699 14.5293 39.0032 14.5421 39.1341 14.5236H43.2959C43.3341 14.5181 43.3729 14.5216 43.4095 14.534C43.446 14.5463 43.4793 14.5671 43.5065 14.5947C43.5338 14.6222 43.5545 14.6559 43.5667 14.6929C43.5788 14.7299 43.5822 14.7693 43.5767 14.8079V16.1229C43.5767 16.3479 43.4775 16.4663 43.2785 16.4781C42.6346 16.5373 41.8967 16.5876 41.0651 16.6291C40.2334 16.6707 39.3727 16.6915 38.4829 16.6915C38.0134 16.7001 37.5443 16.6523 37.086 16.5491C36.7472 16.4753 36.4311 16.3201 36.164 16.0967C35.9245 15.8809 35.7508 15.6005 35.6632 15.2884C35.5552 14.8891 35.5052 14.4761 35.5144 14.0622L35.5161 4.32305ZM47.9337 16.1758C47.9395 16.2168 47.9359 16.2586 47.9229 16.298C47.91 16.3373 47.8881 16.373 47.8591 16.4023C47.8301 16.4316 47.7949 16.4537 47.756 16.4668C47.7171 16.4799 47.676 16.4837 47.6354 16.4778H45.5097C45.4691 16.4837 45.428 16.4799 45.3891 16.4668C45.3502 16.4537 45.315 16.4316 45.286 16.4023C45.257 16.373 45.2351 16.3373 45.2222 16.298C45.2092 16.2586 45.2053 16.2168 45.2111 16.1758V4.35851C45.2111 4.14533 45.3107 4.03875 45.5097 4.03875H47.6354C47.8347 4.03875 47.9339 4.14533 47.9337 4.35851V16.1758ZM56.1539 14.5229C56.5991 14.5229 57.0092 14.514 57.3838 14.4961C57.7585 14.4783 58.1449 14.4397 58.5429 14.3806C58.5776 14.3723 58.6136 14.3729 58.6481 14.3822C58.6825 14.3915 58.7143 14.4092 58.7404 14.4338C58.7665 14.4584 58.7863 14.4891 58.7979 14.5232C58.8094 14.5573 58.8123 14.5938 58.8066 14.6294V15.9621C58.8066 16.1161 58.713 16.2227 58.5255 16.2819C58.0671 16.4254 57.5966 16.5264 57.1202 16.5839C56.6136 16.6527 56.1034 16.6883 55.5923 16.6904C54.7712 16.7131 53.9535 16.5742 53.1847 16.2815C52.5606 16.0323 52.01 15.6249 51.5863 15.0985C51.1566 14.5403 50.8517 13.8947 50.6922 13.2059C50.4953 12.3741 50.4008 11.5209 50.4111 10.6657V9.84838C50.4009 8.99368 50.4923 8.14083 50.6835 7.30822C50.8374 6.62048 51.1374 5.97476 51.5621 5.41566C51.9813 4.88815 52.5293 4.48036 53.1518 4.23257C53.9206 3.93981 54.7382 3.80093 55.5594 3.8237C56.5141 3.83071 57.4621 3.98658 58.37 4.28579C58.4504 4.3062 58.5232 4.34943 58.5802 4.41038C58.6182 4.46809 58.6368 4.53671 58.6329 4.60594V5.8854C58.6387 5.92099 58.6357 5.95746 58.6242 5.99159C58.6127 6.02572 58.5932 6.05644 58.5671 6.08105C58.5411 6.10565 58.5092 6.12339 58.4748 6.13266C58.4403 6.14192 58.4043 6.14244 58.3696 6.13418C58.0415 6.08779 57.6842 6.05218 57.2978 6.02736C56.9115 6.00254 56.5193 5.99095 56.1213 5.99257C55.6397 5.97888 55.1598 6.05729 54.7069 6.22364C54.3359 6.37034 54.0155 6.62361 53.7849 6.95227C53.5326 7.32942 53.3621 7.75633 53.2845 8.20494C53.1774 8.79397 53.1272 9.39215 53.135 9.99102V10.5418C53.1269 11.141 53.1797 11.7394 53.2926 12.3276C53.3746 12.7753 53.5518 13.1997 53.8115 13.5716C54.0508 13.8969 54.3765 14.1465 54.7509 14.2912C55.2008 14.4561 55.6772 14.5345 56.1555 14.5222L56.1539 14.5229ZM69.6614 4.03841C69.7004 4.0346 69.7394 4.04271 69.7739 4.06169C69.8083 4.08067 69.8365 4.10965 69.8545 4.1449C69.8714 4.18267 69.8771 4.22454 69.871 4.26553C69.8649 4.30652 69.8474 4.34487 69.8202 4.37593L66.0611 10.0269L70.312 16.1577C70.3347 16.1859 70.349 16.2199 70.3536 16.256C70.3582 16.2921 70.353 16.3288 70.3382 16.3619C70.3217 16.4009 70.293 16.4333 70.2565 16.4542C70.2201 16.4751 70.1778 16.4832 70.1363 16.4774H67.6599C67.5577 16.4826 67.4556 16.4644 67.3613 16.4242C67.2803 16.3784 67.2137 16.3107 67.1685 16.2286L63.5673 10.6842V16.1751C63.573 16.2161 63.5695 16.2579 63.5565 16.2971C63.5435 16.3364 63.5217 16.3722 63.4927 16.4015C63.4638 16.4308 63.4284 16.4528 63.3896 16.4659C63.3508 16.4791 63.3096 16.4829 63.269 16.4771H61.1429C61.1024 16.4829 61.0612 16.4791 61.0224 16.466C60.9835 16.4529 60.9482 16.4308 60.9192 16.4015C60.8903 16.3722 60.8687 16.3364 60.8558 16.2971C60.8428 16.2579 60.8389 16.2161 60.8447 16.1751V4.35783C60.8447 4.14465 60.9441 4.03807 61.1429 4.03807H63.269C63.4678 4.03807 63.567 4.14465 63.5673 4.35783V9.36853L66.922 4.25067C66.9669 4.18433 67.0275 4.13019 67.098 4.09299C67.1684 4.0558 67.2469 4.03668 67.3264 4.03735L69.6614 4.03841Z" fill="#222222"/>
</svg>
