<svg width="50" height="34" viewBox="0 0 50 34" fill="none" xmlns="http://www.w3.org/2000/svg">
<path fill-rule="evenodd" clip-rule="evenodd" d="M19.0876 13.331C19.0876 12.5799 19.6981 11.971 20.451 11.971H47.7191C48.4721 11.971 49.0825 12.5799 49.0825 13.331V29.5506C49.0825 31.9796 47.1438 34 44.6893 34H23.4808C21.0264 34 19.0876 31.9796 19.0876 29.5506V13.331ZM21.8144 14.691V29.5506C21.8144 30.5341 22.5886 31.28 23.4808 31.28H44.6893C45.5815 31.28 46.3557 30.5341 46.3557 29.5506V14.691H21.8144Z" fill="#E2D9D1"/>
<path d="M2.7268 10.88C2.7268 10.1288 3.33722 9.51996 4.09021 9.51996H14.9974C15.7504 9.51996 16.3608 10.1288 16.3608 10.88C16.3608 11.6311 15.7504 12.2399 14.9974 12.2399H4.09021C3.33722 12.2399 2.7268 11.6311 2.7268 10.88Z" fill="#E2D9D1"/>
<path d="M0 17.6799C0 16.9288 0.610416 16.3199 1.3634 16.3199H12.2706C13.0236 16.3199 13.634 16.9288 13.634 17.6799C13.634 18.431 13.0236 19.0399 12.2706 19.0399H1.3634C0.610416 19.0399 0 18.431 0 17.6799Z" fill="#E2D9D1"/>
<path d="M2.7268 24.4799C2.7268 23.7288 3.33722 23.1199 4.09021 23.1199H14.9974C15.7504 23.1199 16.3608 23.7288 16.3608 24.4799C16.3608 25.231 15.7504 25.8399 14.9974 25.8399H4.09021C3.33722 25.8399 2.7268 25.231 2.7268 24.4799Z" fill="#E2D9D1"/>
<path fill-rule="evenodd" clip-rule="evenodd" d="M24.7455 8.51173C24.6625 8.51173 24.6149 8.55474 24.601 8.57835L21.6269 13.6329C21.2457 14.2806 20.4103 14.4975 19.7609 14.1173C19.1115 13.7371 18.8941 12.9038 19.2752 12.256L22.2494 7.20151C22.7721 6.31312 23.7339 5.79174 24.7455 5.79174H43.4247C44.4361 5.79174 45.398 6.31313 45.9208 7.20157L48.8949 12.256C49.2761 12.9038 49.0586 13.7371 48.4092 14.1173C47.7598 14.4975 46.9244 14.2806 46.5433 13.6329L43.5691 8.57836C43.5552 8.55479 43.5076 8.51173 43.4247 8.51173H24.7455Z" fill="#E2D9D1"/>
<path fill-rule="evenodd" clip-rule="evenodd" d="M38.63 7.35415C37.877 7.35415 37.2666 6.74526 37.2666 5.99416C37.2666 4.15745 35.8142 2.71999 34.0853 2.71999C32.3564 2.71999 30.904 4.15745 30.904 5.99416C30.904 6.74526 30.2936 7.35415 29.5406 7.35415C28.7876 7.35415 28.1772 6.74526 28.1772 5.99416C28.1772 2.71197 30.7942 -2.93386e-07 34.0853 0C37.3764 2.93386e-07 39.9934 2.71197 39.9934 5.99416C39.9934 6.74526 39.3829 7.35415 38.63 7.35415Z" fill="#E2D9D1"/>
</svg>
