<svg width="201" height="179" viewBox="0 0 201 179" fill="none" xmlns="http://www.w3.org/2000/svg">
<g filter="url(#filter0_f)">
<g filter="url(#filter1_f)">
<ellipse cx="97.9688" cy="122.193" rx="59.5208" ry="4.07677" transform="rotate(15 97.9688 122.193)" fill="black" fill-opacity="0.7"/>
</g>
<path d="M135.652 76.1205L134.917 75.9298L85.3546 63.071L78.2186 89.6152C83.8826 91.123 89.6341 92.7323 95.3984 94.3452C108.782 98.09 122.235 101.854 134.825 104.413L134.939 104.436L135.052 104.465C137.916 105.204 142.242 103.272 144.744 98.5714C146.997 94.3386 147.125 88.7323 142.132 83.7098L136.965 78.5122L143.938 76.2558C147.167 75.2112 148.981 74.5922 150.376 73.4276C151.526 72.4678 152.792 70.7528 153.493 66.5903L135.652 76.1205ZM135.652 76.1205L136.409 76.0594C140.156 75.7571 143.11 73.1814 144.04 69.8117C145.021 66.2571 143.628 62.5234 140.368 60.0606L139.68 59.5408L138.848 59.3122L114.258 52.555L114.243 52.5508L114.228 52.5468L94.4388 47.2579M135.652 76.1205L94.4388 47.2579M94.4388 47.2579L100.401 42.6267C103.845 43.5489 107.289 44.4693 110.732 45.3894L110.735 45.3903L110.736 45.3905C114.9 46.5033 119.062 47.6156 123.225 48.7308C125.498 49.3399 128.05 49.9311 130.556 50.5115C132.173 50.8862 133.771 51.2564 135.262 51.6239C139.273 52.6129 142.943 53.6759 145.994 55.0513C149.065 56.4352 151.126 57.9686 152.315 59.6734C153.401 61.2301 154.042 63.3277 153.493 66.5898L94.4388 47.2579ZM90.6496 80.5301L89.5411 84.8232L93.8174 85.9951L128.59 95.5239L128.594 95.5249C131.14 96.2202 133.471 95.4689 135.125 94.0554C136.622 92.7754 137.476 91.0652 137.909 89.5703C138.347 88.0576 138.494 86.2946 138.117 84.6015C137.745 82.9316 136.673 80.696 134.168 79.629C132.872 79.0758 129.688 78.1605 126.845 77.3718C123.852 76.5415 120.691 75.7066 118.998 75.2668L98.312 69.3333L93.8696 68.0591L92.7142 72.5339L90.6496 80.5301Z" stroke="#CDA27E" stroke-width="9"/>
<path d="M138.616 75.7109L137.879 75.5198L79.2238 60.3033L70.4609 92.8994C77.2926 94.711 84.248 96.6573 91.2256 98.6098C106.887 102.992 122.66 107.406 137.399 110.399L137.513 110.422L137.627 110.451C141.427 111.431 146.791 108.855 149.823 103.151C152.606 97.9159 152.742 90.9692 146.651 84.8275L141.503 79.6377L148.455 77.3789C152.191 76.165 154.47 75.3989 156.238 73.9189C157.762 72.6426 159.311 70.4412 160.156 65.4348L138.616 75.7109ZM138.616 75.7109L139.375 75.6491C143.437 75.3178 146.619 72.5235 147.622 68.8907C148.676 65.0727 147.205 61.0118 143.611 58.2918L142.922 57.77L142.088 57.5409L113.349 49.6429L113.334 49.6387L113.318 49.6346L88.6979 43.0546M138.616 75.7109L88.6979 43.0546M88.6979 43.0546L97.2013 36.4315C101.348 37.5418 105.494 38.6499 109.64 39.7576L109.641 39.7579C114.508 41.0586 119.373 42.3587 124.238 43.6623C126.888 44.3724 129.841 45.0561 132.756 45.7308C134.649 46.169 136.526 46.6035 138.292 47.0389C142.99 48.1969 147.333 49.4524 150.964 51.0906C154.612 52.737 157.158 54.6032 158.657 56.758C160.054 58.7656 160.831 61.434 160.156 65.4343L88.6979 43.0546ZM86.6694 81.8826L85.5608 86.1757L89.8371 87.3476L130.478 98.485L130.481 98.4861C133.194 99.2269 135.665 98.4257 137.426 96.9168C139.031 95.5415 139.964 93.6868 140.442 92.0363C140.925 90.3678 141.083 88.437 140.676 86.6025C140.275 84.792 139.133 82.4336 136.502 81.3139C135.041 80.6912 131.386 79.6375 128.041 78.7096C124.543 77.739 120.846 76.7629 118.873 76.2501L94.6871 69.3116L90.2446 68.0372L89.0891 72.5121L86.6694 81.8826Z" stroke="#DBB89A" stroke-width="9"/>
<path d="M141.912 75.3876L141.177 75.1968L73.0931 57.5328L62.7031 96.1812C70.7433 98.3067 78.9473 100.602 87.1843 102.907C105.208 107.949 123.389 113.036 140.356 116.484L140.471 116.507L140.583 116.536C145.37 117.771 151.797 114.536 155.359 107.846C158.672 101.623 158.818 93.3376 151.581 86.058L146.414 80.8603L153.387 78.604C157.647 77.2254 160.404 76.3138 162.553 74.5192C164.457 72.9294 166.291 70.2471 167.276 64.401L141.912 75.3876ZM141.912 75.3876L142.669 75.3265C147.048 74.9732 150.477 71.9717 151.556 68.0614C152.687 63.9662 151.116 59.5771 147.181 56.6043L146.493 56.0844L145.661 55.8558L112.618 46.7759L112.603 46.7717L112.588 46.7676L82.9861 38.8561M141.912 75.3876L82.9861 38.8561M82.9861 38.8561L94.0647 30.2501C98.9407 31.5558 103.816 32.8587 108.69 34.1613L108.694 34.1622C114.289 35.6576 119.883 37.1525 125.477 38.6514C128.517 39.466 131.886 40.246 135.224 41.0189C137.403 41.5235 139.569 42.025 141.622 42.5312C147.033 43.8651 152.076 45.3202 156.309 47.2284C160.561 49.1451 163.614 51.352 165.436 53.9645C167.155 56.429 168.072 59.6686 167.276 64.4005L82.9861 38.8561ZM82.8018 83.2625L81.6933 87.5557L85.9696 88.7275L132.695 101.532L132.699 101.533C135.574 102.318 138.186 101.478 140.062 99.8746C141.782 98.4047 142.799 96.4032 143.323 94.5931C143.853 92.7651 144.019 90.6627 143.578 88.6832C143.142 86.7262 141.922 84.2559 139.171 83.0863C137.546 82.3936 133.398 81.1959 129.529 80.1225C125.506 79.0066 121.254 77.8839 118.99 77.2955L91.174 69.317L86.7315 68.0428L85.5761 72.5176L82.8018 83.2625Z" stroke="#E0C0A5" stroke-width="9"/>
<path d="M145.211 75.0672L144.477 74.8769L66.9644 54.7652L54.9471 99.4663C64.1948 101.905 73.6479 104.55 83.145 107.206C103.532 112.909 124.121 118.669 143.316 122.573L143.43 122.596L143.542 122.625C149.314 124.113 156.805 120.223 160.897 112.544C164.741 105.331 164.894 95.7074 156.512 87.2905L151.33 82.0868L158.319 79.8324C163.104 78.289 166.338 77.2323 168.869 75.1233C171.153 73.2199 173.272 70.0562 174.397 63.37L145.211 75.0672ZM145.211 75.0672L145.966 75.0067C150.662 74.6309 154.338 71.4212 155.493 67.2351C156.699 62.8642 155.031 58.1469 150.753 54.9203L150.066 54.4019L149.236 54.1738L111.89 43.9118L111.875 43.9076L111.86 43.9035L77.2731 34.6598M145.211 75.0672L77.2731 34.6598M77.2731 34.6598L90.9309 24.0719C96.5376 25.5734 102.144 27.0716 107.749 28.5695C114.073 30.2596 120.395 31.9492 126.718 33.6434C130.149 34.5627 133.933 35.439 137.694 36.3101C140.159 36.8809 142.614 37.4495 144.954 38.0265C151.077 39.5362 156.82 41.1908 161.656 43.369C166.512 45.5557 170.07 48.103 172.216 51.173C174.258 54.0941 175.316 57.905 174.397 63.3695L77.2731 34.6598ZM78.9362 84.6453L77.8277 88.9385L82.104 90.1103L134.915 104.582L134.919 104.583C137.957 105.412 140.711 104.532 142.702 102.834C144.536 101.27 145.635 99.1221 146.206 97.1528C146.782 95.1658 146.958 92.8921 146.482 90.768C146.012 88.6655 144.715 86.0822 141.844 84.862C140.054 84.0993 135.412 82.7574 131.018 81.5383C126.472 80.2771 121.664 79.0078 119.109 78.3438L87.6628 69.3253L83.2204 68.0513L82.0651 72.526L78.9362 84.6453Z" stroke="#E5CBB4" stroke-width="9"/>
<path fill-rule="evenodd" clip-rule="evenodd" d="M148.266 77.5075L62.7702 55.3234L50.5417 100.81C60.2427 103.389 70.1028 106.147 79.9886 108.913C102.668 115.258 125.482 121.64 146.818 125.981L147.001 126.018L147.182 126.065C152.286 127.381 159.753 123.956 164.021 115.954C167.889 108.703 168.1 99.0703 159.505 90.452L151.155 82.0793L162.412 78.4577C167.859 76.7052 171.009 75.6437 173.434 73.6255C175.462 71.9388 177.631 68.9628 178.821 61.8848C179.758 56.3056 178.659 52.6678 176.754 49.9477C174.681 46.9877 171.115 44.3578 165.879 42.0013C160.674 39.659 154.429 37.8518 147.63 36.175C145.091 35.549 142.379 34.9205 139.638 34.2852C135.402 33.3036 131.096 32.3055 127.25 31.2749C120.2 29.3859 113.15 27.5019 106.097 25.6171L106.096 25.6168L106.094 25.6162C100.196 24.0402 94.2973 22.4636 88.3974 20.884L77.5935 29.2458L111.86 38.404L154.865 50.2208L155.969 51.0522C161.375 55.1246 163.679 61.2798 162.063 67.1352C160.528 72.6936 155.65 76.9204 149.479 77.4111L148.266 77.5075ZM61.6174 32.4636L86.8054 12.9689C93.8583 14.8587 100.911 16.7435 107.964 18.6283C115.016 20.5131 122.069 22.3979 129.122 24.2877C132.903 25.3009 136.931 26.233 141.032 27.1819C164.38 32.5847 190.079 38.5317 185.955 63.0833C183.891 75.3605 178.736 79.8761 172.055 82.7268C169.874 83.6577 167.53 84.411 165.078 85.1991C164.928 85.2472 164.778 85.2954 164.627 85.3439C166.58 87.3023 168.186 89.3249 169.478 91.3817C182.821 112.626 162.649 137.523 145.376 133.07C123.811 128.682 100.51 122.166 77.6465 115.772C67.8481 113.032 58.1301 110.314 48.6635 107.796C46.3147 107.171 43.9814 106.559 41.6662 105.961L57.6462 46.5206L148.905 70.2002C155.125 69.7056 158.274 61.8455 151.616 56.8299L109.967 45.3859L61.6174 32.4636ZM70.64 92.2451L77.7622 64.6571L119.946 76.7539C122.81 77.4982 128.166 78.9126 133.236 80.3188C138.061 81.6574 143.416 83.1979 145.583 84.1203C149.666 85.8545 151.433 89.4943 152.052 92.2539C152.679 95.0459 152.44 97.9634 151.713 100.472C150.994 102.953 149.579 105.773 147.112 107.874C144.394 110.189 140.58 111.405 136.417 110.268L70.64 92.2451ZM118.039 83.7323L82.9093 73.6583L79.4257 87.1521L138.322 103.29C144.8 105.059 147.548 92.8089 142.751 90.7768C139.534 89.4058 123.675 85.1961 118.039 83.7323Z" fill="#ECD5C1"/>
<path fill-rule="evenodd" clip-rule="evenodd" d="M151.564 77.1861L56.6409 52.5547L42.7854 104.093C53.6963 106.987 64.8048 110.094 75.9489 113.212C100.991 120.217 126.213 127.272 149.777 132.068L149.96 132.106L150.14 132.152C156.229 133.722 164.76 129.641 169.559 120.651C173.957 112.411 174.177 101.439 164.436 91.6835L156.07 83.3045L167.344 79.685C173.316 77.7677 176.943 76.561 179.75 74.2284C182.157 72.2281 184.612 68.7707 185.942 60.8527C187.002 54.5411 185.761 50.3319 183.534 47.1552C181.137 43.7377 177.065 40.7673 171.226 38.1408C165.418 35.5285 158.473 33.5219 150.961 31.6691C148.136 30.9723 145.135 30.2768 142.108 29.5752C137.448 28.4953 132.727 27.401 128.49 26.2658C120.711 24.1814 112.932 22.1025 105.15 20.0229L105.145 20.0214C98.5191 18.2507 91.8914 16.4794 85.2629 14.7046L71.8804 25.0485L111.131 35.5388L158.438 48.5371L159.541 49.367C165.289 53.6931 167.691 60.1765 165.999 66.3077C164.388 72.1422 159.263 76.5771 152.775 77.0903L151.564 77.1861ZM55.8929 28.2632L83.6738 6.79027C91.4554 8.87536 99.2367 10.9549 107.018 13.0344C114.799 15.1139 122.581 17.1935 130.362 19.2785C134.534 20.3964 138.978 21.425 143.503 22.4722C169.263 28.4344 197.617 34.9972 193.076 62.0502C190.73 76.0156 184.747 80.865 177.029 83.9902C174.83 84.8808 172.489 85.6314 170.052 86.4131C169.887 86.466 169.721 86.5192 169.555 86.5725C171.506 88.5267 173.144 90.5387 174.494 92.5842C190.045 116.137 167.567 144.116 148.334 139.157C124.541 134.314 98.8328 127.125 73.6073 120.071C62.547 116.978 51.5796 113.911 40.9073 111.079C38.5598 110.456 36.2267 109.845 33.9099 109.247C33.9097 109.247 33.9101 109.247 33.9099 109.247L51.5169 43.7518L152.205 69.8791C159.066 69.3364 162.538 60.6761 155.191 55.1467L109.238 42.5207L55.8929 28.2632ZM66.7739 93.6268L74.2506 64.6644L120.065 77.801C123.22 78.621 129.131 80.182 134.724 81.7335C140.075 83.2176 145.922 84.9021 148.254 85.8945C152.457 87.6791 154.302 91.432 154.956 94.3374C155.616 97.274 155.368 100.363 154.595 103.031C153.83 105.671 152.332 108.637 149.751 110.833C146.918 113.242 142.963 114.498 138.636 113.317L66.7739 93.6268ZM118.158 84.7795L79.3978 73.6656L75.5595 88.5337L140.542 106.339C147.689 108.29 150.716 94.7922 145.423 92.5513C141.873 91.0393 124.376 86.3945 118.158 84.7795Z" fill="#EFE1D4"/>
</g>
<defs>
<filter id="filter0_f" x="28.9102" y="1.79004" width="169.649" height="142.944" filterUnits="userSpaceOnUse" color-interpolation-filters="sRGB">
<feFlood flood-opacity="0" result="BackgroundImageFix"/>
<feBlend mode="normal" in="SourceGraphic" in2="BackgroundImageFix" result="shape"/>
<feGaussianBlur stdDeviation="2.5" result="effect1_foregroundBlur"/>
</filter>
<filter id="filter1_f" x="0.466797" y="66.2881" width="195.005" height="111.809" filterUnits="userSpaceOnUse" color-interpolation-filters="sRGB">
<feFlood flood-opacity="0" result="BackgroundImageFix"/>
<feBlend mode="normal" in="SourceGraphic" in2="BackgroundImageFix" result="shape"/>
<feGaussianBlur stdDeviation="20" result="effect1_foregroundBlur"/>
</filter>
</defs>
</svg>
