<svg width="48" height="40" viewBox="0 0 48 40" fill="none" xmlns="http://www.w3.org/2000/svg">
<path fill-rule="evenodd" clip-rule="evenodd" d="M5.5139 20.0714L5.51286 1.52505L42.4151 1.524L42.4277 20.0714H43.9744L43.9954 0.0157548L3.94832 0L3.94727 20.084L5.5139 20.0714Z" fill="#E1D1C0"/>
<path fill-rule="evenodd" clip-rule="evenodd" d="M3.88477 39.9857L44.0381 40.0004L44.0643 33.4402L42.4388 33.4297L42.4294 38.3651L5.52816 38.3724L5.51239 33.436L3.88792 33.4328L3.88477 39.9857Z" fill="#E1D1C0"/>
<path fill-rule="evenodd" clip-rule="evenodd" d="M29.9805 31.0381L32.3147 31.0307L32.3283 26.6341C32.6827 26.8358 32.894 27.2297 33.3524 27.7201L36.0473 31.0381L38.0145 31.037L38.046 22.5316L35.6866 22.5274L35.6877 26.9891C34.9149 26.2487 32.2106 22.6503 31.9004 22.5358L29.9868 22.5264L29.9805 31.0381Z" fill="#E1D1C0"/>
<path fill-rule="evenodd" clip-rule="evenodd" d="M15.4502 25.875L11.6461 25.8456L11.7155 24.3436L15.9233 24.3363L15.9097 22.5371L9.32031 22.5234L9.32136 31.0173L16.1263 31.0372L16.1326 29.1981L11.6955 29.1698L11.6987 27.6521L15.4449 27.6153L15.4502 25.875Z" fill="#E1D1C0"/>
<path fill-rule="evenodd" clip-rule="evenodd" d="M17.9531 31.016L20.403 31.0391L21.0422 29.4133L24.5646 29.3828C24.8958 29.7798 25.125 30.5035 25.2985 31.0349L27.763 31.0381L24.0662 22.5474L21.7257 22.5264L17.9531 31.016ZM22.836 24.9368L23.9274 27.5952L21.8045 27.6099L22.836 24.9368Z" fill="#E1D1C0"/>
<path fill-rule="evenodd" clip-rule="evenodd" d="M41.3723 28.5368L40.6699 30.2236C41.5069 31.2056 46.3908 32.0721 47.6988 29.5787C48.4453 28.1545 47.683 26.9319 46.7031 26.4341C45.6779 25.9131 43.9599 25.993 43.1597 25.1727C43.3258 23.3577 45.9807 24.5887 46.9396 24.8471C47.0921 24.22 47.4937 23.6823 47.5726 23.0017C46.0186 22.5879 44.3405 21.8569 42.49 22.7202C41.7024 23.0889 41.2871 23.3367 40.9643 24.1602C40.6331 25.0067 40.8161 26.0035 41.2608 26.5496C42.2166 27.7249 45.1333 27.6997 45.5149 28.3425C46.0291 29.2069 44.6065 29.3918 43.7286 29.3067C42.5962 29.1954 42.1819 28.7521 41.3723 28.5368Z" fill="#E1D1C0"/>
<path fill-rule="evenodd" clip-rule="evenodd" d="M0.908439 24.3806L3.83143 24.3911C3.81566 25.328 3.94183 27.8004 3.77571 28.4926C3.64112 29.0524 3.27627 29.3528 2.57917 29.2656C2.07869 29.2036 1.87681 28.9652 1.58556 28.7121C1.55928 28.689 1.48462 28.6228 1.45939 28.6039C1.27959 28.4653 1.45414 28.5608 1.25226 28.4695C0.779114 28.9505 0.358539 29.609 0 29.9441C1.15132 31.4891 4.59582 31.7475 5.67565 30.0407C6.5557 28.6522 6.17193 24.5392 6.20347 22.5342L0.888461 22.5205L0.908439 24.3806Z" fill="#E1D1C0"/>
<path fill-rule="evenodd" clip-rule="evenodd" d="M27.2913 10.544L17.0219 10.6249L17.0156 17.3154C20.7745 17.2807 25.0192 17.4677 28.6918 17.244C30.8231 17.224 32.3256 13.3988 29.3721 11.692C30.3489 11.0629 31.1616 10.5693 30.9882 8.75537C30.6843 5.58868 26.7687 6.28084 23.9151 6.28084C22.3243 6.28084 20.7346 6.28294 19.1437 6.28294L17.043 9.0379L22.4947 9.03475L27.1998 9.06416C28.041 9.40341 27.9316 10.3172 27.2913 10.544ZM20.4591 14.279L20.4454 12.7644L24.4261 12.8337C25.0602 12.8295 26.8476 12.8243 27.2251 12.8778C27.7876 12.9566 27.8433 14.3199 27.1115 14.3168L20.4591 14.279Z" fill="#E1D1C0"/>
<path d="M19.1212 35.1659H18.3683V35.8633H19.2074V36.0723H18.1191V34.1387H19.1643V34.3477H18.3683V34.959H19.1212V35.1659Z" fill="#E1D1C0"/>
<path d="M19.4977 35.768C19.6102 35.8363 19.7732 35.8941 19.9456 35.8941C20.2011 35.8941 20.3504 35.7596 20.3504 35.5643C20.3504 35.3836 20.2474 35.2807 19.9856 35.1799C19.6702 35.0685 19.4746 34.9047 19.4746 34.6316C19.4746 34.3302 19.7248 34.1064 20.1013 34.1064C20.2989 34.1064 20.443 34.1527 20.5292 34.201L20.4598 34.4047C20.3967 34.3701 20.2674 34.3134 20.0918 34.3134C19.8279 34.3134 19.7269 34.4709 19.7269 34.6032C19.7269 34.7839 19.8447 34.8732 20.1118 34.9761C20.4388 35.1021 20.6059 35.2597 20.6059 35.5443C20.6059 35.8426 20.3851 36.101 19.9278 36.101C19.7406 36.101 19.5366 36.0464 19.4336 35.9781L19.4977 35.768Z" fill="#E1D1C0"/>
<path d="M21.3173 34.3508H20.7285V34.1387H22.1616V34.3508H21.5697V36.0723H21.3173V34.3508Z" fill="#E1D1C0"/>
<path d="M22.8965 36.0726V35.9182L23.0942 35.726C23.5705 35.2722 23.786 35.0317 23.7892 34.7502C23.7892 34.5612 23.6977 34.3858 23.4191 34.3858C23.2498 34.3858 23.1089 34.4719 23.0227 34.5433L22.9427 34.3658C23.0721 34.2566 23.2561 34.1768 23.4716 34.1768C23.8733 34.1768 24.0426 34.4519 24.0426 34.7187C24.0426 35.0632 23.7923 35.3416 23.3991 35.7197L23.2498 35.8573V35.8625H24.0888V36.0715H22.8965V36.0726Z" fill="#E1D1C0"/>
<path d="M25.6116 35.1199C25.6116 35.7543 25.3761 36.1041 24.9629 36.1041C24.598 36.1041 24.351 35.7627 24.3457 35.1462C24.3457 34.5213 24.6159 34.1768 24.9944 34.1768C25.3877 34.1757 25.6116 34.5265 25.6116 35.1199ZM24.598 35.1483C24.598 35.6335 24.7473 35.9087 24.9776 35.9087C25.2363 35.9087 25.3593 35.6073 25.3593 35.1315C25.3593 34.6725 25.2415 34.3711 24.9808 34.3711C24.7589 34.3711 24.598 34.641 24.598 35.1483Z" fill="#E1D1C0"/>
<path d="M25.8457 36.0726V35.9182L26.0434 35.726C26.5197 35.2722 26.7352 35.0317 26.7384 34.7502C26.7384 34.5612 26.6469 34.3858 26.3683 34.3858C26.199 34.3858 26.0581 34.4719 25.9719 34.5433L25.892 34.3658C26.0213 34.2566 26.2053 34.1768 26.4208 34.1768C26.8225 34.1768 26.9918 34.4519 26.9918 34.7187C26.9918 35.0632 26.7415 35.3416 26.3483 35.7197L26.199 35.8573V35.8625H27.038V36.0715H25.8457V36.0726Z" fill="#E1D1C0"/>
<path d="M28.5609 35.1199C28.5609 35.7543 28.3253 36.1041 27.9121 36.1041C27.5473 36.1041 27.3002 35.7627 27.2949 35.1462C27.2949 34.5213 27.5651 34.1768 27.9437 34.1768C28.3369 34.1757 28.5609 34.5265 28.5609 35.1199ZM27.5462 35.1483C27.5462 35.6335 27.6955 35.9087 27.9258 35.9087C28.1844 35.9087 28.3075 35.6073 28.3075 35.1315C28.3075 34.6725 28.1897 34.3711 27.9289 34.3711C27.7071 34.3711 27.5462 34.641 27.5462 35.1483Z" fill="#E1D1C0"/>
</svg>
