<svg width="177" height="183" viewBox="0 0 177 183" fill="none" xmlns="http://www.w3.org/2000/svg">
<g filter="url(#filter0_f)">
<ellipse cx="92.2194" cy="109.338" rx="50.5" ry="22" transform="rotate(-32.1207 92.2194 109.338)" fill="black" fill-opacity="0.3"/>
</g>
<path d="M67.5096 76.5555L63.8333 78.8634C62.4798 79.7132 62.0807 81.5142 62.9421 82.8863L68.4006 91.5809C69.2619 92.9528 71.0574 93.3762 72.411 92.5264L76.0873 90.2185M67.5096 76.5555L65.8158 65.1457C65.5813 63.5659 66.6376 62.0105 68.2177 61.9014C70.6767 61.7316 70.8875 62.8872 74.528 68.686L81.4747 64.3248C82.9768 63.3818 84.9774 64.0178 85.6938 65.666L91.0151 77.91C91.592 79.2374 91.1249 80.7778 89.9152 81.5373L76.0873 90.2185L67.5096 76.5555ZM67.5096 76.5555L76.0873 90.2185L67.5096 76.5555Z" stroke="#CDA27E" stroke-width="10" stroke-linecap="round" stroke-linejoin="round"/>
<path d="M64.6654 77.4197L59.4809 80.6745C57.572 81.8729 57.0092 84.4128 58.224 86.3478L65.9219 98.6094C67.1365 100.544 69.6687 101.141 71.5776 99.9429L76.7621 96.688M64.6654 77.4197L62.2767 61.3289C61.946 59.1011 63.4356 56.9075 65.6639 56.7537C69.1318 56.5143 69.4291 58.1439 74.5631 66.3217L84.3597 60.1714C86.4781 58.8415 89.2995 59.7384 90.3097 62.0627L97.8141 79.33C98.6278 81.2019 97.969 83.3743 96.263 84.4453L76.7621 96.688L64.6654 77.4197ZM64.6654 77.4197L76.7621 96.688L64.6654 77.4197Z" stroke="#D6AD8B" stroke-width="10" stroke-linecap="round" stroke-linejoin="round"/>
<path d="M61.6405 78.3387L54.8535 82.5996C52.3546 84.1684 51.6178 87.4933 53.2081 90.0264L63.2853 106.078C64.8754 108.611 68.1903 109.392 70.6892 107.824L77.4762 103.563M61.6405 78.3387L58.5134 57.2745C58.0805 54.358 60.0306 51.4864 62.9477 51.285C67.4874 50.9716 67.8766 53.105 74.5975 63.8104L87.4221 55.7591C90.1953 54.0181 93.8887 55.1923 95.2112 58.2351L105.035 80.8394C106.1 83.29 105.238 86.1338 103.005 87.5359L77.4762 103.563L61.6405 78.3387ZM61.6405 78.3387L77.4762 103.563L61.6405 78.3387Z" stroke="#DBB89A" stroke-width="10" stroke-linecap="round" stroke-linejoin="round"/>
<path d="M58.6176 79.2577L50.2281 84.5247C47.1392 86.4639 46.2284 90.5739 48.1942 93.705L60.6507 113.547C62.6163 116.677 66.7138 117.644 69.8027 115.704L78.1922 110.437M58.6176 79.2577L54.7522 53.22C54.217 49.615 56.6275 46.0653 60.2334 45.8164C65.845 45.429 66.3261 48.0661 74.6339 61.2992L90.4865 51.3469C93.9144 49.1948 98.4799 50.6462 100.115 54.4074L112.258 82.3489C113.575 85.378 112.509 88.8934 109.748 90.6265L78.1922 110.437L58.6176 79.2577ZM58.6176 79.2577L78.1922 110.437L58.6176 79.2577Z" stroke="#E0C0A5" stroke-width="10" stroke-linecap="round" stroke-linejoin="round"/>
<path d="M55.0603 80.3383L44.7856 86.7888C41.0025 89.1638 39.8871 94.1973 42.2946 98.0321L57.5504 122.332C59.9577 126.167 64.976 127.35 68.7591 124.975L79.0338 118.525M55.0603 80.3383L50.3263 48.4494C49.6709 44.0342 52.6231 39.6869 57.0392 39.382C63.9119 38.9076 64.5011 42.1372 74.6758 58.3441L94.0909 46.1553C98.2891 43.5196 103.881 45.2971 105.883 49.9036L120.755 84.1241C122.368 87.8339 121.062 92.1392 117.681 94.2618L79.0338 118.525L55.0603 80.3383ZM55.0603 80.3383L79.0338 118.525L55.0603 80.3383Z" stroke="#E6CBB4" stroke-width="10" stroke-linecap="round" stroke-linejoin="round"/>
<path d="M51.5031 81.4198L39.3431 89.0538C34.8659 91.8646 33.5458 97.8218 36.395 102.36L54.4501 131.119C57.299 135.657 63.2382 137.058 67.7154 134.247L79.8754 126.613M51.5031 81.4198L45.9005 43.6797C45.1248 38.4544 48.6187 33.3094 53.8451 32.9486C61.9788 32.3871 62.6762 36.2093 74.7178 55.3899L97.6952 40.9647C102.664 37.8454 109.281 39.9491 111.651 45.4008L129.252 85.9002C131.16 90.2908 129.615 95.386 125.614 97.8981L79.8754 126.613L51.5031 81.4198ZM51.5031 81.4198L79.8754 126.613L51.5031 81.4198Z" stroke="#ECD5C1" stroke-width="10" stroke-linecap="round" stroke-linejoin="round"/>
<path d="M48.1247 82.4465L34.1736 91.2049C29.037 94.4297 27.5225 101.264 30.7913 106.471L51.5056 139.466C54.7742 144.672 61.5881 146.279 66.7247 143.054L80.6758 134.296M48.1247 82.4465L41.6968 39.1478C40.8069 33.1529 44.8154 27.2501 50.8116 26.8361C60.1433 26.1919 60.9434 30.5771 74.7585 52.5828L101.12 36.0328C106.821 32.4542 114.413 34.8677 117.131 41.1223L137.325 87.5868C139.514 92.624 137.742 98.4697 133.151 101.352L80.6758 134.296L48.1247 82.4465ZM48.1247 82.4465L80.6758 134.296L48.1247 82.4465Z" stroke="#EFE1D4" stroke-width="10" stroke-linecap="round" stroke-linejoin="round"/>
<defs>
<filter id="filter0_f" x="7.86719" y="36.6523" width="168.704" height="145.371" filterUnits="userSpaceOnUse" color-interpolation-filters="sRGB">
<feFlood flood-opacity="0" result="BackgroundImageFix"/>
<feBlend mode="normal" in="SourceGraphic" in2="BackgroundImageFix" result="shape"/>
<feGaussianBlur stdDeviation="20" result="effect1_foregroundBlur"/>
</filter>
</defs>
</svg>
