<svg width="68" height="20" viewBox="0 0 68 20" fill="none" xmlns="http://www.w3.org/2000/svg">
<path fill-rule="evenodd" clip-rule="evenodd" d="M67.2838 10.4994C67.799 9.6501 67.7502 8.55423 67.2648 7.8589C66.8923 7.32396 64.2178 3.97347 63.3225 3.06256C62.268 1.98911 61.3498 1.46191 60.3181 1.46191H38.2884C36.2947 1.46191 35.6201 2.12326 35.6201 4.41129V13.499C35.6201 15.7392 35.7963 16.7301 38.7158 16.7301H60.3181C61.3498 16.7301 62.398 15.9165 63.1747 15.104C64.0706 14.1687 66.8238 11.2579 67.2838 10.4994ZM40.5182 4.91509V4.97492C39.6173 5.48651 38.6428 6.07101 37.764 7.32901V4.92728C37.764 4.56637 37.7906 4.33408 38.2102 4.33408H40.0155C40.4937 4.33408 40.5182 4.6229 40.5182 4.91509ZM52.6293 13.5243V13.6533C52.6293 13.6651 52.6296 13.6783 52.63 13.6925C52.6343 13.8664 52.6424 14.194 52.1018 14.1942H50.2217C49.761 14.1942 49.7727 13.8151 49.7774 13.6634C49.7778 13.6505 49.7782 13.6392 49.7782 13.63V12.6694H49.7801V7.99437C49.7803 7.34999 49.6894 6.8909 49.5073 6.61708C49.3251 6.34328 49.0282 6.20637 48.6165 6.20637C47.7264 6.20637 47.0921 7.02975 46.7236 7.50811C46.6779 7.56746 46.6363 7.62151 46.5988 7.66801V13.5245H46.5966V13.6534C46.5966 13.6653 46.5969 13.6784 46.5973 13.6926C46.6016 13.8664 46.6096 14.1939 46.069 14.1939H44.2135C43.7533 14.1939 43.7651 13.8151 43.7698 13.6633C43.7702 13.6503 43.7706 13.639 43.7706 13.6297V12.6691H43.7728V7.99411C43.7721 7.34974 43.6827 6.89064 43.5048 6.61683C43.3269 6.34302 43.0359 6.20611 42.6318 6.20611C41.6768 6.20611 41.0548 7.06197 40.7106 7.53548C40.6753 7.58404 40.643 7.62857 40.6134 7.66775V13.6533C40.6134 13.6651 40.6138 13.6783 40.6141 13.6925C40.6184 13.8663 40.6265 14.1938 40.0862 14.1938H38.2067C37.7464 14.1938 37.7582 13.815 37.7629 13.6632C37.7633 13.6502 37.7637 13.6389 37.7637 13.6296V9.92878C37.7637 7.71363 40.2643 5.55176 40.8165 5.07436C40.8688 5.02918 40.9036 4.99909 40.9172 4.98547C41.6197 4.40694 42.6109 4.10795 43.4634 4.10795C44.2 4.108 44.7997 4.24897 45.2626 4.53086C45.7254 4.81276 46.0716 5.25172 46.3012 5.84774C46.7682 5.29928 47.2552 4.87215 47.762 4.56637C48.2671 4.26111 48.847 4.1024 49.4371 4.10795C51.5661 4.1077 52.6306 5.31964 52.6306 7.74379V13.5243H52.6293ZM58.7276 14.1087C60.7111 14.1087 62.312 13.1029 62.9801 11.3031V11.3029C63.0252 11.1831 62.9116 10.9324 62.6553 10.9326H61.0848C61.0848 10.9326 60.6997 10.9154 60.5119 11.2237C60.0798 11.9321 59.5836 12.2936 58.746 12.2936C57.3729 12.2936 56.595 11.4224 56.5588 9.8072H62.6553C63.1356 9.8072 63.2479 9.46719 63.2333 9.08232C63.1191 6.07025 61.3202 4.20037 58.6381 4.20037C55.9269 4.20037 53.9567 6.30533 53.9567 9.20936C53.9567 12.1488 55.8545 14.1087 58.7276 14.1087ZM56.5588 8.17476C56.7035 6.86748 57.4986 6.0691 58.6381 6.0691C59.9205 6.0691 60.5353 7.03129 60.6438 8.17476H56.5588Z" fill="#222222"/>
<path fill-rule="evenodd" clip-rule="evenodd" d="M11.2209 1.97423C10.9794 1.589 10.6661 1.25389 10.2982 0.987166C9.93021 0.728376 9.52615 0.525465 9.09893 0.385019C8.62444 0.230304 8.13435 0.128378 7.63758 0.081087C7.06925 0.0251401 6.4985 -0.00188928 5.92749 0.000102532H0.923072C0.473073 0.000102532 0.00137506 0.295968 0.00137506 0.853906V8.9772C0.63532 10.3311 1.87021 11.7684 3.2742 12.4554V10.8443C3.2742 9.99418 3.91373 9.80426 4.17826 9.80426H5.65794C7.69615 9.80426 9.25179 9.37577 10.3249 8.51886C11.398 7.66315 11.9345 6.3921 11.9345 4.70568C11.9375 4.2184 11.881 3.73257 11.7664 3.259C11.6523 2.80496 11.4683 2.37149 11.2209 1.97423ZM8.30465 6.14613C8.13187 6.44634 7.87413 6.6886 7.56404 6.84244C7.22794 7.00295 6.86487 7.09924 6.49349 7.12636C6.08903 7.16244 5.67137 7.18054 5.2405 7.1806H3.83435C3.49038 7.1806 3.2742 6.9003 3.2742 6.4868V3.16563C3.2742 2.79316 3.51678 2.63691 3.80764 2.63691H5.2405C5.70725 2.63691 6.14495 2.65039 6.55364 2.67737C6.92147 2.69416 7.2827 2.78147 7.61772 2.93455C7.91633 3.07684 8.16347 3.30839 8.32508 3.59723C8.49538 3.89428 8.58053 4.3135 8.58066 4.85488C8.58066 5.40456 8.48866 5.83498 8.30465 6.14613ZM3.2742 12.9803C1.73005 12.3627 0.694838 11.6259 0.00137506 10.8954V14.817C0.00137506 14.817 -0.0557317 15.4566 0.566092 15.4566H2.74939C3.34831 15.4566 3.27445 14.817 3.27445 14.817V12.9803H3.2742ZM34.2159 4.2735H32.2564C31.8582 4.2735 31.5958 4.44106 31.4379 4.87946C31.28 5.31786 29.2031 11.1083 29.2031 11.1083C29.2031 11.1083 27.2163 5.43746 27.06 4.99837C26.9037 4.55927 26.6469 4.2735 26.1844 4.2735H24.3839C23.7488 4.2735 23.7488 4.77294 23.8275 4.97099C23.8914 5.13106 26.357 11.8961 27.2961 14.4733C27.5175 15.0818 27.605 15.2648 27.6118 15.4902C27.6187 15.7157 27.3898 16.1889 27.2316 16.4605C27.1589 16.5844 27.0755 16.7018 26.9823 16.8111C28.8233 16.2594 30.9451 14.2572 32.0424 12.0881C33.1274 9.06524 34.5582 5.07205 34.6203 4.86777C34.7201 4.53691 34.7191 4.2735 34.2159 4.2735ZM25.5637 17.3864C25.3936 17.3834 25.2238 17.3711 25.0551 17.3496C24.8485 17.3222 24.462 17.3608 24.462 17.6996V19.2141C24.462 19.7922 24.7381 19.8307 24.8901 19.8649C25.3473 19.9604 25.8136 20.0054 26.2807 19.9995C26.8997 19.9995 27.4383 19.8867 27.8965 19.6613C28.3592 19.4321 28.7715 19.1126 29.1092 18.7216C29.4814 18.2862 29.796 17.8046 30.0451 17.2886C30.3187 16.7342 30.5812 16.1235 30.8329 15.4564C30.8329 15.4564 30.9408 15.155 31.1184 14.6611C30.5779 15.2073 28.0305 17.6255 25.5637 17.3864ZM22.6211 6.07137C22.5148 5.81824 22.3695 5.58332 22.1907 5.37515C22.0124 5.17533 21.8084 5.00017 21.584 4.85431C21.3418 4.69669 21.0849 4.56307 20.8169 4.45536C20.5432 4.34836 20.2617 4.26257 19.9749 4.19874C19.6488 4.12726 19.318 4.07981 18.985 4.05678C18.6255 4.02998 18.2213 4.01647 17.7725 4.01626C14.8041 4.01626 13.1139 4.95541 12.7018 6.83373C12.5678 7.41657 13.1437 7.45081 13.1437 7.45081H14.9698C15.4465 7.45081 15.426 7.29703 15.6573 6.86549C15.7406 6.63067 15.8906 6.42525 16.0888 6.27444C16.4392 6.00419 16.9645 5.86905 17.6646 5.869C18.3382 5.869 18.8276 5.99958 19.1328 6.26072C19.4379 6.52186 19.6175 6.91853 19.6715 7.45081C19.6715 8.06801 19.4792 8.47979 18.7339 8.47979C16.9168 8.41374 14.9643 8.61953 13.8645 9.25071C12.7648 9.88188 12.1431 11.1158 12.1431 12.441C12.1431 12.9815 12.2396 13.4548 12.4327 13.8609C12.6199 14.2589 12.8965 14.6084 13.241 14.8816C13.6065 15.167 14.0255 15.3762 14.4731 15.4969C14.982 15.6366 15.5077 15.705 16.0353 15.7002C16.8255 15.7002 17.5238 15.6009 18.1299 15.4025C18.7359 15.2045 19.6737 14.5514 19.7932 14.4561V14.8042C19.7932 15.1492 19.898 15.4569 20.3093 15.4569H22.4327C22.8626 15.4569 22.9581 15.1492 22.9581 14.7706V8.22185C22.9619 7.81476 22.9349 7.408 22.8775 7.00498C22.8319 6.68415 22.7457 6.37044 22.6211 6.07137ZM19.7255 12.4921C19.7255 12.4921 19.1772 13.6323 17.2202 13.6323C16.6818 13.6323 16.2441 13.5107 15.9071 13.2674C15.57 13.0242 15.4016 12.6455 15.4019 12.1315C15.4019 11.4639 15.6758 10.9927 16.2238 10.7178C16.7712 10.4432 17.8672 10.2863 18.6884 10.3055C19.5097 10.3248 19.7255 10.8443 19.7255 11.203V12.4924V12.4921Z" fill="#222222"/>
</svg>
