<svg width="18" height="18" viewBox="0 0 18 18" fill="none" xmlns="http://www.w3.org/2000/svg">
<path d="M7.67527 10.7885C7.91871 10.9698 8.16258 11.1518 8.40666 11.3336C8.15183 11.585 7.89658 11.8366 7.64261 12.0877C7.61898 12.112 7.59685 12.1374 7.57364 12.1621L7.58589 11.9958C7.61511 11.5936 7.64455 11.1907 7.67527 10.7885ZM9.67799 7.24246C8.43975 8.02347 7.2015 8.80663 5.96261 9.58721C5.93748 9.60289 5.90997 9.61514 5.88204 9.62782C6.04426 10.1465 6.20648 10.6654 6.36827 11.1845C6.48387 11.5497 6.60376 11.9141 6.71312 12.2809C6.75824 12.433 6.83645 12.5144 7.00147 12.4857C7.04723 11.8649 7.09107 11.2446 7.13791 10.6237C7.14328 10.5513 7.15187 10.4778 7.16068 10.4054C7.09064 10.3652 7.12136 10.2883 7.14564 10.2629C7.1884 10.2189 7.23115 10.174 7.27391 10.1293C7.28917 10.1151 7.30507 10.1007 7.31989 10.0865C7.34138 10.0642 7.36222 10.0418 7.38349 10.0197C7.48598 9.92432 7.58804 9.82721 7.69053 9.73138C7.74897 9.67616 7.80806 9.62073 7.86671 9.56572C8.02571 9.41683 8.18449 9.26814 8.34628 9.12161C8.75753 8.74776 9.17715 8.3825 9.58926 8.01015C10.1146 7.53488 10.6386 7.05789 11.159 6.57725C11.1973 6.52418 11.222 6.45586 11.2555 6.39742C11.1623 6.40988 11.0529 6.39441 10.9788 6.43802C10.5407 6.69908 10.1097 6.97044 9.67799 7.24246ZM18 9C18 13.9705 13.9705 18 8.99989 18C4.02908 18 0 13.9705 0 9C0 4.02924 4.02908 0 8.99989 0C13.9705 0 18 4.02924 18 9ZM13.0189 5.41444C13.0141 5.38006 13.0107 5.34482 13.0038 5.31109C12.9245 4.92907 12.7153 4.81369 12.3406 4.94196C12.2856 4.96044 12.2293 4.97247 12.1734 4.98773C11.9643 5.0741 11.7574 5.16649 11.5454 5.24577C11.1938 5.37834 10.8389 5.50232 10.4844 5.63016C10.2682 5.72018 10.0536 5.81429 9.83549 5.89959C9.2891 6.11316 8.74163 6.32265 8.19438 6.53407C7.06808 6.9683 5.94156 7.40231 4.8144 7.83654C4.56129 7.9343 4.30603 8.02691 4.05551 8.13111C3.83527 8.222 3.61053 8.31009 3.4077 8.43213C3.31789 8.48606 3.21905 8.62786 3.22936 8.71789C3.23925 8.80878 3.37826 8.88655 3.46335 8.96777C3.47882 8.9826 3.50525 8.98732 3.52759 8.9942C4.12469 9.17898 4.72179 9.36376 5.31932 9.5481C5.3161 9.61041 5.32319 9.67401 5.34274 9.73697L5.55996 10.4338L5.84551 11.348C5.87903 11.4541 5.91277 11.5583 5.94585 11.6625C6.02707 11.9171 6.11151 12.1801 6.18822 12.4375C6.35538 12.9959 6.80616 13.0391 6.94045 13.0391C6.96043 13.0391 6.9817 13.0378 7.00276 13.037C7.02338 13.0378 7.04401 13.0385 7.06442 13.0385C7.40928 13.0385 7.6308 12.8485 7.76272 12.7349C7.787 12.7136 7.81021 12.6941 7.82697 12.6812C7.85425 12.6608 7.87982 12.6386 7.90174 12.6139C7.91893 12.5961 7.93461 12.5776 7.95158 12.56C7.9793 12.5291 8.0053 12.5 8.02829 12.4773C8.22876 12.2787 8.42879 12.0809 8.62969 11.8828L8.86775 11.6479C8.90127 11.6711 8.93479 11.6941 8.96852 11.7171C9.51019 12.1215 10.051 12.5278 10.5946 12.93C11.0003 13.2299 11.2839 13.1521 11.4803 12.6939C11.5638 12.3073 11.647 11.9199 11.7299 11.5343C11.806 11.1486 11.8812 10.764 11.9564 10.3792C12.0047 10.1678 12.0524 9.95569 12.1001 9.74448C12.2269 9.1489 12.3534 8.55266 12.4796 7.95686C12.5206 7.76671 12.5608 7.57678 12.6016 7.38663C12.6115 7.34151 12.6233 7.29617 12.6323 7.25062C12.7617 6.63849 12.8902 6.02679 13.0189 5.41444Z" fill="url(#paint0_linear)"/>
<defs>
<linearGradient id="paint0_linear" x1="9" y1="0" x2="9" y2="18" gradientUnits="userSpaceOnUse">
<stop stop-color="#65BCF6"/>
<stop offset="1" stop-color="#3C8FCB"/>
</linearGradient>
</defs>
</svg>
