<svg width="300" height="168" viewBox="0 0 300 168" fill="none" xmlns="http://www.w3.org/2000/svg">
<g filter="url(#filter0_d)">
<rect x="20" y="16" width="260" height="128" rx="2" fill="white"/>
</g>
<path d="M97.0688 89.8792H113.448V87.8102H100.259L113.534 70.9998V69.4481H97.4999V71.5171H110.259L97.0688 88.3274V89.8792ZM125.776 90.224C131.983 90.224 136.207 85.3102 136.207 79.6205C136.207 73.9309 132.069 69.0171 125.776 69.0171C119.569 69.0171 115.345 73.9309 115.345 79.6205C115.345 85.3964 119.569 90.224 125.776 90.224ZM125.862 88.155C121.207 88.155 117.759 84.3619 117.759 79.7067C117.759 74.9654 121.121 71.2585 125.776 71.2585C130.431 71.2585 133.879 75.0516 133.879 79.7067C133.793 84.3619 130.517 88.155 125.862 88.155ZM149.138 90.224C155.345 90.224 159.569 85.3102 159.569 79.6205C159.569 73.9309 155.431 69.0171 149.138 69.0171C142.931 69.0171 138.707 73.9309 138.707 79.6205C138.707 85.3964 142.931 90.224 149.138 90.224ZM149.224 88.155C144.569 88.155 141.121 84.3619 141.121 79.7067C141.121 74.9654 144.483 71.2585 149.138 71.2585C153.793 71.2585 157.241 75.0516 157.241 79.7067C157.241 84.3619 153.879 88.155 149.224 88.155ZM162.758 89.8792H169.827C176.293 89.8792 180.69 85.3964 180.69 79.6205C180.69 73.8447 176.293 69.4481 169.827 69.4481H162.758V89.8792ZM165.086 87.724V71.6033H169.914C175.086 71.6033 178.362 75.1378 178.362 79.7067C178.362 84.2757 175.086 87.8102 169.914 87.8102H165.086V87.724ZM185.172 89.8792H189.655V83.7585H193.103C197.672 83.7585 201.379 81.3447 201.379 76.6033C201.379 72.3792 198.448 69.4481 193.534 69.4481H185.172V89.8792ZM189.655 79.793V73.4998H193.103C195.345 73.4998 196.724 74.6205 196.724 76.6033C196.724 78.4136 195.431 79.793 193.19 79.793H189.655ZM200.603 89.8792H205.172L207.069 85.3102H215.69L217.586 89.8792H222.327L213.534 69.2757H209.396L200.603 89.8792ZM208.621 81.3447L211.379 74.7067L214.138 81.3447H208.621ZM227.672 89.8792H232.155V81.6895L240 69.4481H234.914L229.914 77.6378L225.086 69.4481H219.827L227.672 81.8619V89.8792Z" fill="#303493"/>
<path fill-rule="evenodd" clip-rule="evenodd" d="M62.2414 66H71.5517V69.4483H66.1207C65.7759 69.4483 65.5172 69.7069 65.5172 70.0517V73.069C65.5172 73.4138 65.7759 73.6724 66.1207 73.6724H75.7759L65.2586 86.431C65.1724 86.5172 65.1724 86.6897 65.1724 86.7759V89.2759C65.1724 89.6207 65.431 89.8793 65.7759 89.8793H71.5517V93.3276H62.2414C61.0345 93.3276 60 92.2931 60 91.0862V68.2414C60 67.0345 61.0345 66 62.2414 66ZM75.6034 69.4483V66H84.9138C86.1207 66 87.1552 67.0345 87.1552 68.2414V91.0862C87.1552 92.2931 86.1207 93.3276 84.9138 93.3276H75.6034V89.8793H81.3793C81.7241 89.8793 81.9828 89.6207 81.9828 89.2759V86.2586C81.9828 85.9138 81.7241 85.6552 81.3793 85.6552H71.3793L81.8103 72.8966C81.8966 72.8103 81.9828 72.6379 81.9828 72.5517V70.0517C81.9828 69.7069 81.7241 69.4483 81.3793 69.4483H75.6034Z" fill="#303493"/>
<defs>
<filter id="filter0_d" x="0" y="0" width="300" height="168" filterUnits="userSpaceOnUse" color-interpolation-filters="sRGB">
<feFlood flood-opacity="0" result="BackgroundImageFix"/>
<feColorMatrix in="SourceAlpha" type="matrix" values="0 0 0 0 0 0 0 0 0 0 0 0 0 0 0 0 0 0 127 0" result="hardAlpha"/>
<feOffset dy="4"/>
<feGaussianBlur stdDeviation="10"/>
<feColorMatrix type="matrix" values="0 0 0 0 0 0 0 0 0 0 0 0 0 0 0 0 0 0 0.03 0"/>
<feBlend mode="normal" in2="BackgroundImageFix" result="effect1_dropShadow"/>
<feBlend mode="normal" in="SourceGraphic" in2="effect1_dropShadow" result="shape"/>
</filter>
</defs>
</svg>
