<svg width="29" height="23" viewBox="0 0 29 23" fill="none" xmlns="http://www.w3.org/2000/svg">
<path fill-rule="evenodd" clip-rule="evenodd" d="M20.8069 9.1586L1.01071 9.31163L1 21.9235C8.24683 21.8581 16.4283 22.2113 23.5078 21.7888C27.6159 21.7508 30.5122 14.5398 24.8187 11.3221C26.7027 10.1357 28.2694 9.20438 27.9346 5.78523C27.3494 -0.184542 19.8013 1.12085 14.2993 1.12085C11.2329 1.12085 8.16783 1.12478 5.10145 1.12478L1.05222 6.3189L11.5609 6.31236L20.6302 6.3686C22.2531 7.00822 22.0415 8.73088 20.8069 9.1586ZM7.63624 16.1983L7.60945 13.3429L15.2821 13.4737C16.5046 13.4646 19.95 13.4567 20.6771 13.5574C21.7603 13.7053 21.8688 16.2755 20.4588 16.269L7.63624 16.1983Z" stroke="#D4C6B9" stroke-width="2" stroke-linecap="round" stroke-linejoin="round"/>
</svg>
